<?xml version="1.0" encoding="utf-8"?>
<!-- Generator: Adobe Illustrator 18.0.0, SVG Export Plug-In . SVG Version: 6.00 Build 0)  -->
<!DOCTYPE svg PUBLIC "-//W3C//DTD SVG 1.1//EN" "http://www.w3.org/Graphics/SVG/1.1/DTD/svg11.dtd">
<svg version="1.1" id="Layer_1" xmlns="http://www.w3.org/2000/svg" xmlns:xlink="http://www.w3.org/1999/xlink" x="0px" y="0px"
	 viewBox="0 0 128 128" enable-background="new 0 0 128 128" xml:space="preserve">
<g>
	<path fill="#ECB200" d="M80.8,21.5c6.3,0,11.4-4.8,11.4-10.8C92.1,4.8,87.1,0,80.8,0c-6.3,0-11.4,4.8-11.4,10.8
		C69.4,16.7,74.5,21.5,80.8,21.5z"/>
	<path fill="#ECB200" d="M125,57.1c-5.9-19.6-14.4-31.3-25.3-34.7c-11-3.5-19.5,2.9-20.4,3.6c-0.1,0.1-0.2,0.1-0.2,0.2
		c-0.6,0.4-1.2,0.9-1.7,1.5c-0.1,0.1-5.2,6.1-12,10.5c-10.9,7-15.7,3.2-17.3,1.9c-1.7-1.4-3.8-1.8-5.8-1.5l-1.6-16.5
		c1.3-0.7,2.5-1.9,3.3-3.5c1.2-2.2,1.7-5,1.4-7.9c-0.6-6.1-4.3-10.6-8.7-10.6c-0.2,0-0.4,0-0.6,0c-4.6,0.4-7.8,5.8-7.2,12.1
		c0.5,5.5,3.6,9.7,7.4,10.5l1.8,18.2c-0.1,0.1-0.2,0.2-0.2,0.3c-2.5,3.1-2,7.7,1.1,10.2c4.4,3.5,9.6,5.4,15.1,5.4
		c1.2,0,2.4-0.1,3.6-0.3c4.1-0.6,8.3-2.1,12.6-4.5c-0.7,4.6-1.8,9.4-3.5,14.3c-0.3,0.8-0.4,1.5-0.5,2.3
		c-10.1,7.8-20.7,18.3-20.8,29.9c-0.1,10.9,6.4,18.2,11.7,24c0.9,1,1.7,1.9,2.5,2.8c1.6,1.8,3.8,2.8,6,2.8c1.8,0,3.7-0.6,5.2-1.9
		c3.3-2.9,3.7-7.9,0.9-11.2c-0.9-1.1-1.8-2.1-2.7-3.1c-4.7-5.3-7.6-8.7-7.6-13.2c0-1,0.7-5.7,11.2-14.6c1.9,6,5.4,14.8,11.4,23
		c0.7,1,1.4,2,2.1,2.9c3.3,4.7,6.8,9.6,12.9,14.4c1.5,1.1,3.2,1.7,4.9,1.7c2.4,0,4.7-1,6.2-3c2.7-3.4,2.1-8.4-1.3-11.2
		c-4.4-3.5-6.8-6.8-9.8-11.1c-0.7-1-1.4-2-2.2-3.1c-5.1-7-8.2-15.1-9.8-20.7c0.7-1,1.3-2,1.7-3.2c4-11.9,5.8-23.5,5.3-34.3
		c0-0.1,0-0.2,0-0.3c0-1.1-0.2-2.2-0.5-3.2c0.5,0,1.1,0.1,1.6,0.3c3.4,1.1,10,5.8,15.8,25.1c0.9,3.1,3.8,5.1,6.9,5.1
		c0.7,0,1.4-0.1,2.1-0.3C124,64.9,126.2,60.9,125,57.1z M33.3,11.9c-0.4-4.2,1.4-7.2,3.3-7.4c0.1,0,0.1,0,0.2,0c1.8,0,4,2.7,4.4,6.7
		c0.2,2-0.1,4-0.9,5.5c-0.4,0.7-1.2,1.9-2.3,2c-0.1,0-0.1,0-0.2,0C35.9,18.6,33.7,15.9,33.3,11.9z"/>
	<path fill="#ECB200" d="M17,21.4c-0.4-0.6-1.1-0.9-1.9-0.9c-0.7,0-1.4,0.4-1.8,1.1L8.9,29c-0.3,0-0.5,0-0.8,0
		c-0.4,0-0.9,0.1-1.3,0.2c-2.9,0.7-4.7,3.6-4,6.5c0.6,2.4,2.8,4.1,5.3,4.1l0,0c0.4,0,0.9,0,1.3-0.1c1.4-0.3,2.6-1.2,3.3-2.4
		c0.3-0.6,0.6-1.2,0.7-1.8l8.6-2.1c0.7-0.2,1.3-0.7,1.5-1.4s0.1-1.4-0.3-2L17,21.4z"/>
</g>
</svg>
