<?xml version="1.0" encoding="utf-8"?>
<!-- Generator: Adobe Illustrator 18.0.0, SVG Export Plug-In . SVG Version: 6.00 Build 0)  -->
<!DOCTYPE svg PUBLIC "-//W3C//DTD SVG 1.1//EN" "http://www.w3.org/Graphics/SVG/1.1/DTD/svg11.dtd">
<svg version="1.1" id="Layer_1" xmlns="http://www.w3.org/2000/svg" xmlns:xlink="http://www.w3.org/1999/xlink" x="0px" y="0px"
	 viewBox="0 0 128 128" enable-background="new 0 0 128 128" xml:space="preserve">
<g>
	<path fill="#ECB200" d="M55.5,35.2c5.2,0,9.4-4,9.4-8.9c0-4.9-4.2-8.9-9.4-8.9c-5.2,0-9.4,4-9.4,8.9C46.1,31.2,50.3,35.2,55.5,35.2
		z"/>
	<path fill="#ECB200" d="M110,14.5c0-5.9-5-10.7-11.2-10.7c-6.2,0-11.2,4.8-11.2,10.7c0,5.9,5,10.7,11.2,10.7
		C105,25.2,110,20.4,110,14.5z M98.8,21.6c-4.2,0-7.6-3.2-7.6-7.1c0-3.9,3.4-7.1,7.6-7.1c4.2,0,7.6,3.2,7.6,7.1
		C106.4,18.5,103,21.6,98.8,21.6z"/>
	<path fill="#ECB200" d="M90,27.8c-3.2-0.9-6.5,1-7.4,4.1c0,0-0.9,2.2-3.9,4c-3.9,2.4-11.6,4.4-26.5,0.8
		c-14.5-3.5-28.5-1.5-36.6,5.3C10.1,46.8,7.5,53.2,8,60.9c0.2,3.2,2.8,5.6,6,5.6c0.1,0,0.3,0,0.4,0c3.3-0.2,5.8-3.1,5.6-6.4
		c-0.3-3.8,0.8-6.7,3.4-8.8c3.2-2.7,8.4-4.1,14.5-4.2c0,4.5-1.3,17.1-7,26.2c-2,3.3-1.9,7.3,0.1,10.3c-1.4,2.5-4,5.8-8.6,11.5
		c-2.9,3.5-8.8,6.1-18,9.5c-3.4,1.3-5.2,5-3.9,8.4c1,2.7,3.5,4.3,6.2,4.3c0.8,0,1.5-0.1,2.3-0.4c11.6-4.3,18.8-7.7,23.6-13.5
		c2.6-3.1,4.8-5.9,6.6-8.3c0.3,1.5,0.5,3,0.5,4.6c0,1.1-0.8,3.2-3,5.8c-2.1,2.5-5,4.7-7.9,6.2c-3.2,1.6-4.5,5.6-2.9,8.8
		c1.2,2.3,3.5,3.6,5.9,3.6c1,0,2-0.2,3-0.7c4.4-2.2,8.7-5.5,11.9-9.3c4-4.7,6.2-9.7,6.2-14.4c0-6.7-2-12.9-3.7-16.9
		c-0.2-0.4-0.4-0.9-0.7-1.5c6.6-11.7,8.2-24.9,8.5-31.5C88.2,54.7,93.8,36,94.1,35.2C95,32,93.1,28.7,90,27.8z"/>
	<path fill="#ECB200" d="M127.9,31c-0.3-1-1.7-1.8-4.3-2.3c-2.4-0.5-5.6-0.7-9-0.7c-3.4,0-6.6,0.3-9,0.7c-3,0.6-4.4,1.5-4.4,2.7
		c0,0.2,0,0.4,0.1,0.6l1.8,17c0,0.3,0.2,0.6,0.5,0.7c0.2,0.1,3.8,1.9,10.9,1.9c7.1,0,10.8-1.8,11-1.9c0.3-0.1,0.5-0.4,0.5-0.8
		l1.9-17.5C128,31.3,128,31.1,127.9,31z M103.5,33.5c0.6,0.2,1.3,0.4,2.2,0.6c0.5,0.1,1.1,0.2,1.7,0.3l0.3,4.2
		c-1.7-0.2-3-0.6-3.7-0.9L103.5,33.5z M104.1,39.1c1,0.3,2.2,0.5,3.7,0.7l0.3,4.8c-1.5-0.2-2.6-0.4-3.5-0.7L104.1,39.1z M105.1,48.2
		l-0.3-3.1c0.9,0.3,2,0.6,3.4,0.7l0.2,3.3C106.7,48.8,105.6,48.4,105.1,48.2z M114,49.7c-2,0-3.4-0.2-4.6-0.4l-0.2-3.4
		c2,0.2,3.8,0.2,4.8,0.3V49.7z M114,45c-2,0-3.6-0.1-4.9-0.3l-0.3-4.8c2.1,0.2,4.2,0.3,5.2,0.3V45z M114,39c-2,0-3.9-0.1-5.3-0.3
		l-0.2-4.2c1.7,0.2,3.5,0.3,5.5,0.3V39z M120.1,49.3c-1.4,0.2-3.1,0.4-5.1,0.4v-3.5c1,0,2.9,0,5.3-0.3L120.1,49.3z M120.3,44.7
		c-1.5,0.2-3.3,0.3-5.3,0.3v-4.8c1,0,3.1,0,5.6-0.3L120.3,44.7z M120.6,38.7c-1.5,0.2-3.6,0.3-5.6,0.3v-4.2c2,0,4.1-0.1,5.9-0.3
		L120.6,38.7z M124.3,48.2c-0.6,0.2-1.7,0.6-3.3,0.9l0.2-3.3c1.4-0.2,2.6-0.4,3.5-0.8L124.3,48.2z M124.7,43.9
		c-0.8,0.3-2,0.5-3.5,0.7l0.3-4.8c1.5-0.2,2.8-0.5,3.8-0.9L124.7,43.9z M125.4,37.7c-0.8,0.3-2,0.6-3.9,0.9l0.2-4.2
		c0.6-0.1,1.3-0.2,1.8-0.3c0.9-0.2,1.7-0.4,2.3-0.6L125.4,37.7z M114.6,32.9c-6.4,0-10.2-0.9-11.2-1.5c1-0.6,4.9-1.5,11.2-1.5
		c6.4,0,10.2,0.9,11.2,1.5C124.8,32,121,32.9,114.6,32.9z"/>
</g>
</svg>
