<?xml version="1.0" encoding="utf-8"?>
<!-- Generator: Adobe Illustrator 18.0.0, SVG Export Plug-In . SVG Version: 6.00 Build 0)  -->
<!DOCTYPE svg PUBLIC "-//W3C//DTD SVG 1.1//EN" "http://www.w3.org/Graphics/SVG/1.1/DTD/svg11.dtd">
<svg version="1.1" id="Layer_1" xmlns="http://www.w3.org/2000/svg" xmlns:xlink="http://www.w3.org/1999/xlink" x="0px" y="0px"
	 viewBox="0 0 128 128" enable-background="new 0 0 128 128" xml:space="preserve">
<g>
	<path fill="#ECB200" d="M54.7,21c6.1,0,11.1-4.7,11.1-10.5c0-5.8-5-10.5-11.1-10.5c-6.1,0-11.1,4.7-11.1,10.5
		C43.6,16.3,48.6,21,54.7,21z"/>
	<path fill="#ECB200" d="M90.5,17.5c-4.3,0-8,2.7-9.3,6.4c-2.1,1-4.3,1.8-6,2c-4.6,0.6-12.3-0.5-16.9-1.3c-2.2-1-4.8-1.4-7.4-0.7
		c-4.3,1-7.4,4.4-8.3,8.5c0,0.1-0.1,0.2-0.1,0.3c-1.9,4.9-7.7,19.7-3.4,41.1c0.5,2.7,2,4.9,3.9,6.5c0.3,6.4,0.6,13.9-0.6,19
		c-0.8,3.3-2.7,7-10.6,11.3c-3.7,2.1-5.1,6.8-3,10.5c1.4,2.6,4.1,4,6.8,4c1.3,0,2.5-0.3,3.7-1c10.2-5.6,16-12.3,18.2-21.2
		c1-3.9,1.3-8.3,1.4-12.6c3.9,4.5,5.2,7.2,5.4,8.2c0,7.4-0.9,10.1-4.8,18.5c-1.8,3.9-0.1,8.5,3.8,10.3c1,0.5,2.1,0.7,3.2,0.7
		c2.9,0,5.7-1.7,7.1-4.5c4.4-9.6,6.2-14.5,6.2-25.1c0-4.7-2-12.6-18.3-27.7c0-0.5-0.1-1.1-0.2-1.6c-0.6-3.1-1-6-1.1-8.7
		c4.6-0.1,9.6-1.1,14.9-2.3c1.2,0.5,2.5,0.8,3.8,0.8c4.9,0,8.9-3.8,8.9-8.4c0-4.6-4-8.4-8.9-8.4c-3.1,0-5.9,1.5-7.4,3.8
		c-3.7,0.8-7.2,1.6-10.1,1.8c0.7-3,1.6-5.3,2.2-6.8c0.1-0.4,0.3-0.8,0.4-1.2c2.6,0.3,5.5,0.5,8.2,0.5c1.8,0,3.5-0.1,5.1-0.3
		c4-0.5,8.3-2.3,11.6-3.9c0.6,0.1,1.2,0.2,1.8,0.2c5.4,0,9.8-4.2,9.8-9.3C100.3,21.7,95.9,17.5,90.5,17.5z"/>
</g>
</svg>
