<?xml version="1.0" encoding="utf-8"?>
<!-- Generator: Adobe Illustrator 18.0.0, SVG Export Plug-In . SVG Version: 6.00 Build 0)  -->
<!DOCTYPE svg PUBLIC "-//W3C//DTD SVG 1.1//EN" "http://www.w3.org/Graphics/SVG/1.1/DTD/svg11.dtd">
<svg version="1.1" id="Layer_1" xmlns="http://www.w3.org/2000/svg" xmlns:xlink="http://www.w3.org/1999/xlink" x="0px" y="0px"
	 viewBox="0 0 128 128" enable-background="new 0 0 128 128" xml:space="preserve">
<g>
	<path fill="#ECB200" d="M79.7,36.1c-6.3-0.3-11.6,4.4-11.8,10.3c-0.2,6,4.7,11,11,11.3c6.3,0.3,11.6-4.4,11.8-10.3
		C90.9,41.4,86,36.4,79.7,36.1z"/>
	<path fill="#ECB200" d="M122.6,92h-0.3h-0.6c-3.5-33-12.4-54.2-19.5-67.2c-3.5-6.4-7.3-12.2-11.2-17c-1.9-2.3-3.3-3.9-4.4-5
		c-1.3-1.6-3.3-2.7-5.7-2.8c-4.2-0.2-7.6,2.9-7.8,6.8c-0.1,2.4,1,4.5,2.9,5.9c0,0,0,0,0,0c-0.2-0.2-0.4-0.3-0.5-0.5
		c0,0,0.4,0.4,0.9,0.9c0.1,0.1,0.2,0.2,0.2,0.2c0.3,0.3,0.6,0.8,0.9,1.1C67.2,29,42.8,63,24.3,92h-6.4c-1.6,0-2.9,1-2.9,2.6
		c0,2.7,0.9,5,2.6,7.2c-1.6,2.5-3.1,4.7-4.5,7c-2.2-0.8-5-1.4-8.8-1.4c-1.2,0-2.2,1-2.2,2.2c0,1.2,1,2.2,2.2,2.2
		c3.5,0,5.9,0.6,7.9,1.3c0.1,0.2,0.3,0.3,0.5,0.4c0.4,0.2,0.8,0.3,1.2,0.3c0,0,0.1,0,0.1,0c0.4,0.2,0.8,0.4,1.2,0.6
		c3,1.5,6.4,3.1,12.8,3.1c6.4,0,9.8-1.7,12.8-3.1c0.6-0.3,1.3-0.6,1.9-0.9c3.2,0.7,6.7,1.3,10.4,1.9c12.5,1.9,26.3,2.8,38.7,3.2
		c-2.3,0.6-4.1,1.5-5.7,2.3c-2.8,1.4-5.4,2.7-10.8,2.7c-5.4,0-8-1.3-10.8-2.7c-3-1.5-6.4-3.1-12.8-3.1c-6.4,0-9.8,1.7-12.8,3.1
		c-2.8,1.4-5.4,2.7-10.8,2.7c-5.4,0-8-1.3-10.8-2.7c-3-1.5-6.4-3.1-12.8-3.1c-1.2,0-2.2,1-2.2,2.2c0,1.2,1,2.2,2.2,2.2
		c5.4,0,8,1.3,10.8,2.7c3,1.5,6.4,3.1,12.8,3.1c6.4,0,9.8-1.7,12.8-3.1c2.8-1.4,5.4-2.7,10.8-2.7c5.4,0,8,1.3,10.8,2.7
		c3,1.5,6.4,3.1,12.8,3.1c6.4,0,9.8-1.7,12.8-3.1c2.8-1.4,5.4-2.7,10.8-2.7c5.4,0,8,1.3,10.8,2.7c3,1.5,6.4,3.1,12.8,3.1
		c1.2,0,2.2-1,2.2-2.2c0-1.2-1-2.2-2.2-2.2c-5.4,0-8-1.3-10.8-2.7c-1.4-0.7-2.9-1.4-4.7-2c1.1,0,2.4,0,3.4,0
		c6.2,0,15.9-0.2,15.9-0.2v-2.9V94.4v-1.4v-1.2V92H122.6z M27.9,113.2c-5.4,0-8-1.3-10.8-2.7c1.2-1.8,2.4-3.7,3.7-5.7
		c1.7,1.4,3.9,2.6,6.4,3.8c2.5,1.1,5.4,2.2,8.8,3.2C33.9,112.6,31.5,113.2,27.9,113.2z M29.5,92c3.1-6,6.3-9.7,9.6-14.5
		c0.6,0.3,2,0.9,8.8,1.7c3.9,0.5,7.8,0.6,11.7,0.6c1.7,0,3.3-0.1,5-0.2c10.3-0.5,19.7-2.7,27.8-6.5c0.2,0.5,0.4,1.2,0.6,1.7
		c3,6.1,4.3,10.2,5.1,17.2H29.5z M98.4,51.9C82.2,67.3,57.2,65.7,47.9,64.4c13-18.9,25.6-36.9,32.5-46.8c2.6,3.2,6,8.1,9.6,14.8
		C92.6,37.4,95.6,43.9,98.4,51.9C98.4,51.9,98.4,51.9,98.4,51.9z"/>
</g>
</svg>
