<?xml version="1.0" encoding="utf-8"?>
<!-- Generator: Adobe Illustrator 15.1.0, SVG Export Plug-In . SVG Version: 6.00 Build 0)  -->
<!DOCTYPE svg PUBLIC "-//W3C//DTD SVG 1.1//EN" "http://www.w3.org/Graphics/SVG/1.1/DTD/svg11.dtd">
<svg version="1.1" id="Layer_2_copy" xmlns="http://www.w3.org/2000/svg" xmlns:xlink="http://www.w3.org/1999/xlink" x="0px"
	 y="0px" viewBox="0.14 841.445 128 128" enable-background="new 0.14 841.445 128 128"
	 xml:space="preserve">
<g>
	<circle fill="#ECB200" cx="73.161" cy="866.766" r="9.908"/>
	<path fill="#ECB200" d="M109.237,882.827l2.234-11.663h-6.979h-6.98l2.034,10.617c-4.333,0.147-13.543-0.327-30.362-4.364
		c-10.415-2.499-19.396-2.588-26.695-0.264c-6.118,1.948-11.155,5.664-14.564,10.747c-2.33,3.473-3.476,6.938-4.026,9.234
		c-1.323,5.512-0.375,7.441,0.616,8.817c1.272,1.765,3.301,2.767,5.407,2.767c0.589,0,1.183-0.077,1.77-0.239
		c2.169-0.599,4.599-2.524,4.911-6.136c0.027-0.312,0.032-0.621,0.017-0.925c0.228-1.563,1.237-6.178,5.38-9.293
		c2.701-2.032,6.393-3.138,10.928-3.311c-5.639,13.287-7.254,28.091-7.329,28.804c-0.253,2.407,0.371,4.705,1.616,6.574
		c-2.318,5.254-6.063,12.378-10.239,16.174c-5.173,4.704-10.834,4.602-14.217,4.54c-0.797-0.015-1.486-0.026-2.167,0.026
		c-3.667,0.282-6.409,3.481-6.127,7.148c0.281,3.653,3.46,6.391,7.112,6.129c0.162-0.005,0.611,0.003,0.942,0.009
		c0.463,0.008,0.994,0.019,1.584,0.019c4.864,0,13.728-0.652,21.83-8.019c4.094-3.722,8.022-9.384,11.675-16.83
		c0.773-1.577,1.45-3.066,2.023-4.388c3.812,2.445,8.283,6.277,9.406,10.844c2.319,9.434-2.443,18.56-2.994,19.569
		c-1.761,3.229-0.572,7.271,2.656,9.032c1.012,0.553,2.105,0.814,3.182,0.814c2.358,0,4.642-1.256,5.851-3.471
		c1.843-3.379,7.594-15.462,4.234-29.125c-1.544-6.278-5.879-12.181-12.535-17.067c-1.269-0.933-2.504-1.742-3.637-2.431
		c0.88-5.847,3.183-16.823,7.417-24.49c0.117-0.211,0.221-0.424,0.32-0.638c14.843,3.095,23.603,3.367,28.546,2.945l2.417,12.615
		l2.599-13.566c0.041-0.015,0.08-0.029,0.117-0.043c3.427-1.334,5.124-5.191,3.791-8.618
		C110.606,884.363,109.994,883.505,109.237,882.827z"/>
	<path fill="#ECB200" d="M111.471,870.312H97.512c-1.307,0-2.366-1.059-2.366-2.366c0-1.306,1.059-2.364,2.366-2.364h13.959
		c1.307,0,2.367,1.059,2.367,2.364C113.838,869.254,112.778,870.312,111.471,870.312z"/>
	<path fill="#ECB200" d="M106.225,864.142c0,0-3.549-9.467-15.616-12.323c-12.066-2.856-16.088-10.19-16.088-10.19
		s4.022,4.968,20.111,4.732C110.72,846.124,106.225,864.142,106.225,864.142z"/>
	<path fill="#ECB200" d="M104.492,864.142c0,0-3.078-6.347-8.125-8.396c-5.047-2.051-12.145-4.732-12.145-4.732
		s3.482,5.827,10.883,7.887C102.506,860.96,104.492,864.142,104.492,864.142z"/>
</g>
</svg>
