<?xml version="1.0" encoding="utf-8"?>
<!-- Generator: Adobe Illustrator 18.0.0, SVG Export Plug-In . SVG Version: 6.00 Build 0)  -->
<!DOCTYPE svg PUBLIC "-//W3C//DTD SVG 1.1//EN" "http://www.w3.org/Graphics/SVG/1.1/DTD/svg11.dtd">
<svg version="1.1" id="Layer_1" xmlns="http://www.w3.org/2000/svg" xmlns:xlink="http://www.w3.org/1999/xlink" x="0px" y="0px"
	 viewBox="0 0 128 128" enable-background="new 0 0 128 128" xml:space="preserve">
<g>
	<path fill="#ECB200" d="M39.8,27.4c5.3,0,9.6-4.1,9.6-9.1c0-5-4.3-9.1-9.6-9.1c-5.3,0-9.6,4.1-9.6,9.1
		C30.2,23.4,34.5,27.4,39.8,27.4z"/>
	<path fill="#ECB200" d="M126.2,37H82.2c-1-2-3.3-3.3-6-3.1c-0.1,0-10.4,0.9-22.5-0.4c-15.2-1.6-26.3-5.2-32.1-10.7
		c-3.2-3-4.7-6.4-4.7-10.6c0-3.4-2.7-6.1-6.1-6.1c-3.4,0-6.1,2.7-6.2,6.1c0,7.7,2.8,14.3,8.5,19.7c3.5,3.3,8,6.1,13.5,8.3
		c-0.1,0.4-0.1,0.8-0.1,1.3c0,0.5-0.1,1.7-0.2,2.9c-0.4,5.8-1.4,18-1.4,28.6c0,0.5,0,0.9,0.1,1.4c-1.1,1.6-2.5,3.7-4.3,6.5
		c-2.1,3.1-4.2,6.4-5.9,8.8c-0.8,1.1-1.5,2.1-2.1,3.1c-4.1,6-7.1,10.4-11.9,19.2c-1.8,3.3-0.6,7.4,2.7,9.1c1,0.6,2.1,0.8,3.2,0.8
		c2.4,0,4.7-1.3,5.9-3.5c4.5-8.2,7.1-12.1,11.2-18c0.7-1,1.4-2,2.2-3.2c1.7-2.5,3.9-5.8,6-9c1-1.5,2.1-3.2,3.1-4.7
		c4.2,3.3,5.8,5.3,10.5,11.6c0,2.2-0.7,8.9-4.1,17.6c-1.3,3.5,0.4,7.4,3.9,8.7c0.8,0.3,1.6,0.4,2.4,0.4c2.7,0,5.3-1.7,6.3-4.3
		c2.1-5.6,3.7-11.4,4.5-16.4c1.2-8.2-0.1-11.2-1.4-13c-5.6-7.7-8-10.5-12.7-14.4c0-0.3,0-0.6,0-0.9c0-9.9,0.9-21.5,1.3-27.1
		c0-0.2,0-0.4,0-0.6c2.1,0.3,4.3,0.6,6.6,0.9c6.8,0.7,13,0.9,17.4,0.9c4.1,0,6.7-0.6,6.9-0.7c2.8-0.2,5-2.3,5.6-5.3h43.6
		c1,0,1.8-1,1.8-2S127.2,37,126.2,37z"/>
</g>
</svg>
