<?xml version="1.0" encoding="utf-8"?>
<!-- Generator: Adobe Illustrator 18.0.0, SVG Export Plug-In . SVG Version: 6.00 Build 0)  -->
<!DOCTYPE svg PUBLIC "-//W3C//DTD SVG 1.1//EN" "http://www.w3.org/Graphics/SVG/1.1/DTD/svg11.dtd">
<svg version="1.1" id="Layer_1" xmlns="http://www.w3.org/2000/svg" xmlns:xlink="http://www.w3.org/1999/xlink" x="0px" y="0px"
	 viewBox="0 0 128 128" enable-background="new 0 0 128 128" xml:space="preserve">
<g>
	<path fill="#ECB200" d="M68,68c1.7-10.3,5.8-20.6,7.8-25.9c0.7-1.7,1.2-3,1.5-4.2c0.1,0,0.2,0,0.3,0c16.2,2.3,30.3,6.5,30.4,6.5
		c3.8,1.1,7.7-1,8.8-4.8c1.1-3.8-1-7.7-4.8-8.8c-0.6-0.2-15.1-4.5-32.3-7c-10.3-1.5-19.4-1.9-27.1-1.4c-10.5,0.7-18.6,3.3-24.1,7.8
		c-4.4,3.5-9.6,10.2-8.8,21.5c0.3,3.7,3.4,6.6,7.1,6.6c0.2,0,0.3,0,0.5,0c3.9-0.3,6.9-3.7,6.6-7.6c-0.4-5.6,1.7-7.9,3.5-9.4
		c2.2-1.8,6.8-4,16.1-4.7c-2.8,7.4-7.2,19.6-8.6,32c-0.3,2.9,0.5,5.7,2.1,7.9c-1.5,3.9-4.7,9.2-11.1,15.5c-3,2.9-7.4,5.8-19,7.2
		c-4.3,0.5-7.3,4.4-6.8,8.7c0.5,4,3.8,6.9,7.8,6.9c0.3,0,0.6,0,0.9-0.1c13-1.6,21.4-5,28.1-11.6c7.9-7.7,12.3-14.8,14.7-20.8
		c1.5,1,3,2.2,4.4,3.4c5.8,5,6.2,8,6.3,8.7c0.1,7.7-0.7,14.1-4.4,22.3c-1.8,3.9-0.1,8.6,3.9,10.4c1.1,0.5,2.2,0.7,3.2,0.7
		c3,0,5.8-1.7,7.1-4.6c4.2-9.2,5.9-17.6,5.8-28.9C87.8,82.7,76.4,73.4,68,68z"/>
	<path fill="#ECB200" d="M76.3,21.2c6.2,0,11.2-4.7,11.2-10.6c0-5.8-5-10.6-11.2-10.6c-6.2,0-11.2,4.7-11.2,10.6
		C65.1,16.4,70.1,21.2,76.3,21.2z"/>
	<path fill="#ECB200" d="M104.7,101.3c-7.3,0-13.3,5.7-13.3,12.7c0,7,6,12.7,13.3,12.7c7.3,0,13.3-5.7,13.3-12.7
		C118,107,112,101.3,104.7,101.3z M104.7,122.5c-5,0-9-3.8-9-8.5c0-4.7,4.1-8.5,9-8.5c5,0,9.1,3.8,9.1,8.5
		C113.7,118.7,109.7,122.5,104.7,122.5z"/>
</g>
</svg>
