<?xml version="1.0" encoding="utf-8"?>
<!-- Generator: Adobe Illustrator 16.0.0, SVG Export Plug-In . SVG Version: 6.00 Build 0)  -->
<!DOCTYPE svg PUBLIC "-//W3C//DTD SVG 1.1//EN" "http://www.w3.org/Graphics/SVG/1.1/DTD/svg11.dtd">
<svg version="1.1" id="Layer_2_copy_3" xmlns="http://www.w3.org/2000/svg" xmlns:xlink="http://www.w3.org/1999/xlink" x="0px"
	 y="0px" width="612px" height="792px" viewBox="0 0 612 792" enable-background="new 0 0 612 792" xml:space="preserve">
<g>
	<circle fill="#ECB200" cx="198.954" cy="170.274" r="49.772"/>
	<g>
		<path fill="#ECB200" d="M238.992,455.596c9.648,14.611,25.622,22.533,41.917,22.533c9.486,0,19.082-2.691,27.588-8.305
			c5.589-3.686,10.188-8.31,13.755-13.517c4.365-4.298,7.77-9.696,9.721-15.96l42.678-137.006c5.962,4.427,12.933,6.607,19.88,6.607
			c9.764,0,19.436-4.256,26.044-12.441c11.604-14.377,9.361-35.434-5.016-47.033c-5.207-4.207-12.26-8.381-20.593-12.326
			l15.782-50.656c6.326-20.311-5.011-41.908-25.321-48.233c-20.306-6.326-41.902,5.006-48.233,25.316l-16.232,52.11
			c-34.506-5.125-82.251-5.766-124.049,16.668c-1.606,0.865-3.112,1.841-4.514,2.916c-18.063,10.275-28.52,31.184-24.509,52.762
			C182.942,370.002,236.716,452.134,238.992,455.596z M300.746,281.577l-15.113,48.515c-6.774-15.816-12.852-32.594-16.806-48.82
			C278.806,280.387,289.516,280.478,300.746,281.577z"/>
		<path fill="#ECB200" d="M348.851,641.099c42.993-5.197,88.96-5.967,136.457-1.927c4.532,0.387,8.539-2.984,8.922-7.525
			c0.387-4.537-2.979-8.535-7.521-8.918c-62.51-5.316-124.479-2.404-180.563,8.358c-56.084-10.763-118.054-13.675-180.563-8.358
			c-4.543,0.383-7.913,4.381-7.526,8.918c0.388,4.542,4.375,7.918,8.922,7.525c47.497-4.04,93.464-3.271,136.462,1.927
			c-58.145,16.333-106.077,41.482-142.726,74.941c-3.365,3.079-3.604,8.29-0.525,11.661c1.626,1.783,3.858,2.692,6.096,2.692
			c1.989,0,3.983-0.712,5.565-2.161c42.305-38.623,102.998-66.043,174.301-80.32c71.298,14.271,131.991,41.697,174.291,80.32
			c1.587,1.448,3.576,2.161,5.564,2.161c2.238,0,4.471-0.903,6.097-2.692c3.074-3.371,2.835-8.587-0.531-11.661
			C454.923,682.576,406.99,657.432,348.851,641.099z"/>
	</g>
</g>
</svg>
