<?xml version="1.0" encoding="utf-8"?>
<!-- Generator: Adobe Illustrator 18.0.0, SVG Export Plug-In . SVG Version: 6.00 Build 0)  -->
<!DOCTYPE svg PUBLIC "-//W3C//DTD SVG 1.1//EN" "http://www.w3.org/Graphics/SVG/1.1/DTD/svg11.dtd">
<svg version="1.1" id="Layer_1" xmlns="http://www.w3.org/2000/svg" xmlns:xlink="http://www.w3.org/1999/xlink" x="0px" y="0px"
	 viewBox="0 0 128 128" enable-background="new 0 0 128 128" xml:space="preserve">
<g>
	
		<ellipse transform="matrix(0.4665 0.8845 -0.8845 0.4665 48.3087 -15.341)" fill="#ECB200" cx="36.9" cy="32.4" rx="8.5" ry="8.9"/>
	<path fill="#ECB200" d="M115.3,55.9c-0.2-0.9-1.1-1.5-2-1.3c-0.9,0.2-1.5,1.1-1.3,2c4.7,22.9,2.3,37.8-7.4,44.4
		c-10.7,7.4-29,3.6-44.8-2.2c0-2.4,0-4.9,0-8c0-1.3,0-2.7,0-4.2c6-0.8,10-1.3,13.8-1.7c6.1-0.7,11.3-1.4,23.4-3.1
		c3.4-0.5,5.8-3.6,5.3-7.1c-0.5-3.4-3.6-5.8-7.1-5.3c-12,1.7-17.2,2.3-23.2,3.1c-2.7,0.3-5.6,0.7-9.3,1.2c-0.1-0.1-0.2-0.3-0.3-0.5
		c-1.6-2.8-6.5-11.2-10.8-22.9l25.5-10c2.9-1.1,4.4-4.4,3.2-7.4c-0.5-1.3-1.4-2.2-2.5-2.9c2.2-13.4,0-22.4-6.5-26.9
		c-7.3-5-19.5-4-36.3,3c-12.3,5.1-22.7,11.7-22.8,11.8c-0.8,0.5-1,1.6-0.5,2.3c0.5,0.8,1.6,1,2.3,0.5c0.1-0.1,10.3-6.5,22.3-11.5
		c15.5-6.4,26.9-7.6,33-3.3c5.3,3.7,7,11.5,5.1,23.4c-0.5,0-1,0.2-1.5,0.4L39,43c-0.3,0.1-0.6,0.3-0.8,0.4
		c-0.7,0.3-7.8,2.9-14.5,7.8c-12.9,9.4-14.2,19.4-13,26.2c0.5,2.8,2.9,4.7,5.6,4.7c0.3,0,0.6,0,1-0.1c0.2,0,0.3-0.1,0.5-0.1
		c5.2,3.1,16.5,9.7,29.6,15.5c0,7.4,0,12.6,0.2,24.4c0.1,3.4,2.8,6.1,6.2,6.1c0,0,0.1,0,0.1,0c3.4-0.1,6.2-2.9,6.1-6.4
		c-0.2-8.9-0.2-14-0.2-19.2c7.5,2.7,14.5,4.5,20.6,5.4c3,0.4,5.9,0.7,8.5,0.7c7.1,0,13-1.6,17.6-4.7c5.2-3.6,8.7-9.2,10.2-16.8
		C118.4,79,117.9,68.5,115.3,55.9z M47.1,82.7c0-0.1-0.1-0.2-0.1-0.2C47,82.5,47,82.6,47.1,82.7z M20.8,79.9c0.9-1.2,1.3-2.8,1-4.3
		c-0.9-5.2,1.9-10.2,8.4-15c1.6-1.2,3.3-2.2,4.8-3.1c4.8,12.6,10,21.7,11.8,24.8c0.1,0.2,0.2,0.4,0.3,0.6c0.1,0.2,0.2,0.3,0.3,0.5
		c0,2.8,0,5.3,0,7.5c0,1.1,0,2,0,3C36,88.6,26.2,83.1,20.8,79.9z"/>
</g>
</svg>
