<?xml version="1.0" encoding="utf-8"?>
<!-- Generator: Adobe Illustrator 18.0.0, SVG Export Plug-In . SVG Version: 6.00 Build 0)  -->
<!DOCTYPE svg PUBLIC "-//W3C//DTD SVG 1.1//EN" "http://www.w3.org/Graphics/SVG/1.1/DTD/svg11.dtd">
<svg version="1.1" id="Layer_1" xmlns="http://www.w3.org/2000/svg" xmlns:xlink="http://www.w3.org/1999/xlink" x="0px" y="0px"
	 viewBox="0 0 128 128" enable-background="new 0 0 128 128" xml:space="preserve">
<g>
	<path fill="#ECB200" d="M116,31.8V14c0-1.2-1.3-2.2-2.5-2.2s-2.5,1-2.5,2.2v17.8c-6,1-10.9,6.2-11.2,12.5
		c-29.4,18.3-56.6,7-69.4-0.5c-0.5-6.1-5.3-11-11.3-11.9V14c0-1.2-1.3-2.2-2.5-2.2S14,12.8,14,14v17.8c-6,1-11.5,6.5-11.5,13.1
		c0,7.3,6.3,13.2,13.9,13.2c2.3,0,4.6-0.6,6.5-1.5c9,5.3,18.5,8.9,28.3,10.9c0.9,0.2,1.7,0.3,2.6,0.5c0,10.9,0,16.1-0.1,20
		c0,3.2,0,5.4,0,9c-20.7-2.8-31.3-2.1-47.7,2.1c-4.4,1.1-7,5.6-5.8,9.9c1,3.7,4.3,6.1,7.9,6.1c0.7,0,1.4-0.1,2.1-0.3
		c16-4.2,25-4.6,48.5-0.9c2,1.4,4.4,2.1,7,2.1c0,0,0.1,0,0.1,0c6.5,0,11.8-5.2,11.7-11.8c-0.1-9-0.1-11.4,0-16.2
		c0-3.9,0.1-9,0.1-19.8c0.7-0.1,1.4-0.2,2.1-0.3c9.8-1.7,19.2-5.4,28.2-11c1.8,0.8,3.9,1.3,6,1.3c7.6,0,13.8-5.9,13.8-13.2
		C127.7,38.3,122,32.8,116,31.8z M7.2,44.9c0-4.9,4.2-8.8,9.4-8.8c3.6,0,6.8,1.9,8.4,4.7c-3-0.7-6.3,0.6-8,3.4
		c-1.9,3.1-1.2,7,1.4,9.4c-0.6,0.1-1.1,0.2-1.7,0.2C11.4,53.7,7.2,49.8,7.2,44.9z M114,53.7c-0.4,0-0.8,0-1.3-0.1
		c2.9-2.4,3.4-6.7,1.2-9.9c-1.9-2.8-5.4-3.8-8.4-2.8c1.5-2.9,4.7-4.9,8.4-4.9c5.2,0,9.4,4,9.4,8.8C123.4,49.8,119.2,53.7,114,53.7z"
		/>
	<path fill="#ECB200" d="M70.6,50.5c5.8-2.9,8.2-9.6,5.5-15.1c-2.7-5.4-9.6-7.5-15.3-4.7c-5.8,2.9-8.2,9.6-5.5,15.1
		C58,51.3,64.9,53.4,70.6,50.5z"/>
</g>
</svg>
