<?xml version="1.0" encoding="utf-8"?>
<!-- Generator: Adobe Illustrator 18.0.0, SVG Export Plug-In . SVG Version: 6.00 Build 0)  -->
<!DOCTYPE svg PUBLIC "-//W3C//DTD SVG 1.1//EN" "http://www.w3.org/Graphics/SVG/1.1/DTD/svg11.dtd">
<svg version="1.1" id="Layer_1" xmlns="http://www.w3.org/2000/svg" xmlns:xlink="http://www.w3.org/1999/xlink" x="0px" y="0px"
	 viewBox="0 0 128 128" enable-background="new 0 0 128 128" xml:space="preserve">
<g>
	<ellipse fill="#ECB200" cx="76.8" cy="23.2" rx="10.1" ry="9.5"/>
	<path fill="#ECB200" d="M109.1,6.5c-1.9-0.9-3.4-1.2-4.6-1.4C104.3,5,104,5,103.8,5H46.9c-1-1-1.7-2.2-1.8-2.4
		c-2.2-2.8-6.2-3.3-9-1.2c-1.2,0.9-2,1.5-2.3,3.5h-9.2c-0.3,0-0.5-0.5-0.7-0.7c-2.6-2.4-6.7-2.2-9,0.5c-2.4,2.6-2.1,6.7,0.5,9
		c6.7,6,17.1,14.3,25.9,20.7c3,2.2,5.7,4,8.1,5.5c-0.9,2.9-2.1,7.6-2.8,13.9c-0.9,9-0.2,18.7,1.9,28.7c0,4.4,0,8.9,0,13.4
		c0,8.4-0.1,17.2-0.1,24.6c0,3.9,3.2,7,7,7c3.9,0,7-3.2,7-7c0-6.9,0-15,0.1-23c2.6,5.1,5.7,10.5,8.8,15.8c2.1,3.6,4.2,7.4,6.2,10.9
		c1.3,2.3,3.7,3.7,6.2,3.7c1.1,0,2.3-0.3,3.4-0.9c3.4-1.9,4.7-6.1,2.8-9.5c-2-3.7-4.2-7.5-6.4-11.2c-3.9-6.7-7.5-13.1-10.2-18.7
		c-1.4-3-3.2-6.3-4.7-8.9c-1.8-8.1-2.4-15.8-1.7-22.9c0.6-5.8,1.8-9.6,2.4-11.4c0.5-1.4,1-2.9,0.9-5c-0.1-1.9-0.7-3.7-1.7-5.2
		c-0.5-1-1.1-1.9-1.9-3.1C64.2,27.7,55.4,16,49.8,9h50.1c0.3,3,1.8,11.2,8.1,11.4C116.5,20.7,117.5,10.3,109.1,6.5z M34.9,10.5
		c1.7,2.2,3.9,5.1,6.2,8.2C36.9,15.5,32.7,12,29,9h5C34.2,9,34.5,10,34.9,10.5z"/>
</g>
</svg>
