<?xml version="1.0" encoding="utf-8"?>
<!-- Generator: Adobe Illustrator 18.0.0, SVG Export Plug-In . SVG Version: 6.00 Build 0)  -->
<!DOCTYPE svg PUBLIC "-//W3C//DTD SVG 1.1//EN" "http://www.w3.org/Graphics/SVG/1.1/DTD/svg11.dtd">
<svg version="1.1" id="Layer_1" xmlns="http://www.w3.org/2000/svg" xmlns:xlink="http://www.w3.org/1999/xlink" x="0px" y="0px"
	 viewBox="0 0 128 128" enable-background="new 0 0 128 128" xml:space="preserve">
<g>
	<path fill="#ECB200" d="M71.2,21.6c6.2,0,11.3-4.9,11.3-10.8c0-6-5.1-10.8-11.3-10.8C65,0,59.9,4.9,59.9,10.8
		C59.9,16.8,65,21.6,71.2,21.6z M71.2,3.6c4.2,0,7.7,3.2,7.7,7.2c0,4-3.5,7.2-7.7,7.2c-4.2,0-7.7-3.2-7.7-7.2
		C63.5,6.8,67,3.6,71.2,3.6z"/>
	<path fill="#ECB200" d="M104.5,108.8c-10.3-3.4-12.7-5.3-16.5-8.3c-5.3-4.2-9.1-9.7-11.5-13.8c0.6-1.4,0.8-3,0.6-4.6
		c-1.3-10.9-4.2-20.1-8.7-27.5c1.7-1.3,3.4-2.6,5-4.1C82,43,89.7,33.7,96.2,22.9c1.7-2.9,0.8-6.6-2.1-8.3c-2.9-1.7-6.6-0.8-8.3,2.1
		c-5.7,9.6-12.4,17.8-20,24.4c-6,5.3-12.6,9.6-19.6,12.8c-11.9,5.5-20.9,5.9-21,5.9c-0.9,0-1.8,0.3-2.6,0.7c-3.1,1.6-4.4,5.2-3,8.2
		c1.2,2.5,4,3.6,6.7,3.1c2.8-0.2,12.3-1.2,24.3-6.6c0.4-0.2,0.8-0.4,1.2-0.6c3,5,5.1,11.7,6,19.8c0.1,0.6,0.2,1.2,0.4,1.8
		c-5.1,9.5-8.8,19.5-4.5,26.4c3.2,5.1,10.9,10.6,21.3,15c0.8,0.4,1.7,0.5,2.6,0.5c2.6,0,5-1.5,6.1-4.1c1.4-3.4-0.1-7.3-3.5-8.7
		c-8.8-3.7-13.7-7.7-15-9.6c-0.1-0.5-0.1-2.6,2.1-7.7c0.1-0.2,0.2-0.4,0.2-0.5c3.1,4.6,7.2,9.6,12.2,13.5c5,4,8.7,6.6,20.6,10.5
		c0.7,0.2,1.4,0.3,2.1,0.3c2.8,0,5.4-1.8,6.3-4.6C109.8,113.7,107.9,110,104.5,108.8z"/>
	<ellipse transform="matrix(0.447 0.8945 -0.8945 0.447 62.0021 -22.7933)" fill="#ECB200" cx="49.4" cy="38.8" rx="9" ry="9.5"/>
</g>
</svg>
