<?xml version="1.0" encoding="utf-8"?>
<!-- Generator: Adobe Illustrator 18.0.0, SVG Export Plug-In . SVG Version: 6.00 Build 0)  -->
<!DOCTYPE svg PUBLIC "-//W3C//DTD SVG 1.1//EN" "http://www.w3.org/Graphics/SVG/1.1/DTD/svg11.dtd">
<svg version="1.1" id="Layer_1" xmlns="http://www.w3.org/2000/svg" xmlns:xlink="http://www.w3.org/1999/xlink" x="0px" y="0px"
	 viewBox="0 0 128 128" enable-background="new 0 0 128 128" xml:space="preserve">
<g>
	<path fill="#ECB200" d="M125.1,103.7c-14.6-11.7-18.5-16.4-20.1-18.5c-2.2-2.7-1.9-5.4-0.3-12.8c0.2-0.9,0.4-1.8,0.6-2.7
		c0.4-0.4,0.8-0.9,1.1-1.4c3.5-5.2,2.1-12.3-3.1-15.8C90.6,44,85.8,33.4,85.6,32.8c-2.3-5.8-8.8-8.6-14.6-6.4
		c-2.1,0.8-3.9,2.2-5.1,4c-0.6,0.6-1,1.2-1.4,2c-0.1,0.3-0.2,0.5-0.3,0.8c-0.2,0.4-0.4,1-0.8,1.8C52.5,57,43.9,67.5,43.7,67.7
		c-2.1,2.5-2.2,6.1-0.4,8.6L29.6,97c0,0,0,0.1,0,0.1c-0.3,0.4-6.4,10.1-16.6,6c-1.1-0.4-2.3,0.1-2.8,1.2c-0.4,1.1,0.1,2.3,1.2,2.8
		c2.2,0.9,4.4,1.3,6.6,1.3c3.4,0,6.6-1.1,9.6-3.2c3.4-2.4,5.4-5.4,5.6-5.9L46.7,79c0.8,0.3,1.6,0.4,2.4,0.4c2,0,4-0.9,5.4-2.5
		c0.3-0.4,7-8.4,15.9-24.9c2.8,4,6.7,8.6,11.9,13.2c-4.8,5.8-10.3,13-13.5,19.1c-2.9,5.4-3.3,11.1-1.2,17
		c1.9,5.6,6.2,11.4,12.9,17.9c1.5,1.4,3.5,2.2,5.4,2.2c2.1,0,4.1-0.8,5.7-2.4c3-3.1,2.9-8.1-0.3-11C80,96.9,82,93,82.8,91.6
		c1.3-2.5,3.1-5.3,5.1-8c0.4,3.8,1.8,7.7,5,11.5c3.3,4,8.5,9.6,22.5,20.8c1.4,1.2,3.2,1.7,4.9,1.7c2.3,0,4.6-1,6.1-2.9
		C129,111.3,128.4,106.4,125.1,103.7z"/>
	<path fill="#ECB200" d="M64.2,27.1c5.6-2.5,8.3-8.9,5.9-14.2c-2.4-5.3-8.9-7.6-14.5-5.1c-5.6,2.5-8.3,8.9-5.9,14.2
		C52.1,27.3,58.6,29.6,64.2,27.1z"/>
	
		<ellipse transform="matrix(-0.4062 -0.9138 0.9138 -0.4062 -98.4458 167.5102)" fill="#ECB200" cx="5.2" cy="115.7" rx="5" ry="5.2"/>
</g>
</svg>
