<?xml version="1.0" encoding="utf-8"?>
<!-- Generator: Adobe Illustrator 18.0.0, SVG Export Plug-In . SVG Version: 6.00 Build 0)  -->
<!DOCTYPE svg PUBLIC "-//W3C//DTD SVG 1.1//EN" "http://www.w3.org/Graphics/SVG/1.1/DTD/svg11.dtd">
<svg version="1.1" id="Layer_1" xmlns="http://www.w3.org/2000/svg" xmlns:xlink="http://www.w3.org/1999/xlink" x="0px" y="0px"
	 viewBox="0 0 128 128" enable-background="new 0 0 128 128" xml:space="preserve">
<g>
	<path fill="#ECB200" d="M119,18.2c-8.9,0-17.1,3-21.8,7.9c-2.5,2.6-4.5,5.2-6.1,7.8c-0.3-1.6-0.4-3.2-0.4-4.6
		c0-3.8,0.5-8.7,7.7-18.8c2.1-3,1.4-7.2-1.6-9.3c-3-2.1-7.2-1.4-9.3,1.6c-5.3,7.5-10.2,16-10.1,26.6c0,6.2,1.9,13.4,3.5,18.3
		c0.2,0.7,0.4,1.4,0.7,2.1c-0.9,2-2,4.1-3.1,6c-1.8,2.8-4.2,6.3-6.9,9.7c-3.3-8-6.1-14.2-8.6-18.4c-2.5-4.3-4.7-6.8-7-7.9
		c-1-0.7-2.1-1.2-3.3-1.5c-4.3-1.1-8.6,0.9-10.8,4.5c-0.3,0.4-0.8,1-1.2,1.5c-3.8,4.8-11.8,14.9-16.6,26.1c-0.6,1.4-0.9,3-0.8,4.4
		c-0.1,2.1,0.4,4.2,1.5,5.9c-1.3,4.9-3.9,10.7-8.1,15.7c-1.5,1.8-2.6,3.3-3.7,4.9c-1.9,2.7-3.9,5.4-8.6,10.2
		c-2.6,2.6-2.6,6.9,0.1,9.5c1.3,1.3,3,1.9,4.7,1.9c1.7,0,3.5-0.7,4.8-2c5.4-5.5,7.8-8.8,9.9-11.7c1-1.4,1.9-2.7,3.1-4.1
		c2.4-2.9,4.5-6,6.1-9.1c0.1,1,0.2,2.1,0.2,3.1c0.1,8.5-1,14.3-3.6,20c-1.5,3.4-0.1,7.3,3.3,8.9c0.9,0.4,1.8,0.6,2.8,0.6
		c2.5,0,5-1.4,6.1-3.9c4.4-9.5,4.9-18.3,4.8-25.7c-0.1-6.7-2.1-13.7-3.8-18.4c-0.2-0.5-0.4-1-0.6-1.7c3.5-8,9.4-15.8,12.9-20.2
		c1.9,3.9,4.4,9.6,7.6,17.8c-1.6,3.5-1.1,7.8,1.7,10.8c1.9,2.1,4.5,3.1,7.1,3.1c0.8,0,1.6-0.1,2.4-0.3c3.3-0.2,6.3-2,7.9-4.8
		c0.3-0.4,0.8-1,1.2-1.5c2.8-3.5,7.7-9.8,12.1-17.3c0.8-1.2,1.4-2.3,2-3.2c0.4-0.6,0.8-1.2,1-1.6c1.7-2,2.4-4.5,2.2-7
		c0.2-2-0.3-4-1.3-5.7c1.3-3.8,3.6-8.5,7.9-13c2.9-3,9.2-3.8,12.2-3.8c3.7,0,6.7-3,6.7-6.7S122.7,18.2,119,18.2z"/>
	<path fill="#ECB200" d="M61.8,38.5c5.3,0,9.6-4.1,9.6-9.1c0-5-4.3-9.1-9.6-9.1c-5.3,0-9.6,4.1-9.6,9.1
		C52.2,34.4,56.5,38.5,61.8,38.5z"/>
	<path fill="#ECB200" d="M58.1,86.3c-5.3,0-9.6,4.1-9.6,9.1c0,5,4.3,9.1,9.6,9.1c5.3,0,9.6-4.1,9.6-9.1
		C67.7,90.3,63.4,86.3,58.1,86.3z"/>
</g>
</svg>
