<?xml version="1.0" encoding="utf-8"?>
<!-- Generator: Adobe Illustrator 18.0.0, SVG Export Plug-In . SVG Version: 6.00 Build 0)  -->
<!DOCTYPE svg PUBLIC "-//W3C//DTD SVG 1.1//EN" "http://www.w3.org/Graphics/SVG/1.1/DTD/svg11.dtd">
<svg version="1.1" id="Layer_1" xmlns="http://www.w3.org/2000/svg" xmlns:xlink="http://www.w3.org/1999/xlink" x="0px" y="0px"
	 viewBox="0 0 128 128" enable-background="new 0 0 128 128" xml:space="preserve">
<g>
	<path fill="#ECB200" d="M68.5,38.3c4.8-2.4,6.8-8,4.6-12.5c-2.3-4.5-8-6.2-12.7-3.9c-4.8,2.4-6.8,8-4.6,12.5
		C58.1,38.9,63.8,40.7,68.5,38.3z"/>
	<path fill="#ECB200" d="M5.5,0C4.5,0,4,0.8,4,1.8v27.3c0,1,0.5,1.8,1.5,1.8c1,0,1.5-0.8,1.5-1.8V1.8C7,0.8,6.5,0,5.5,0z"/>
	<path fill="#ECB200" d="M10.5,0C9.5,0,9,0.8,9,1.8v27.3c0,1,0.5,1.8,1.5,1.8s1.5-0.8,1.5-1.8V1.8C12,0.8,11.5,0,10.5,0z"/>
	<path fill="#ECB200" d="M112,0c-1,0-2,0.8-2,1.8V14h-5.2c-0.6-2-2-3.3-3.9-3.9c-3.2-1-6.6,0.9-7.7,3.9H34.5c0,0,0-0.2,0-0.2
		c-1.1-3.2-4.6-4.8-7.8-3.7c-1.9,0.6-3.2,1.9-3.8,3.9H18V1.8c0-1-1-1.8-2-1.8s-2,0.8-2,1.8v27.3c0,1,1,1.8,2,1.8s2-0.8,2-1.8V17h4.8
		c0,1,0.1,0.3,0.1,0.4c4,11.5,9.9,21.1,17.3,27.6c4.4,3.9,9.2,6.7,14.3,8.3c0,3,0,8.3,0,13.9c0,6.7,0,13.9,0,18.2c0,0.1,0,0.3,0,0.4
		c-10.1,13.4-23.1,30.7-23.7,31.6c-2.1,3.1-1.2,7.3,1.9,9.4c1.2,0.8,2.5,1.1,3.7,1.1c2.2,0,4.3-1,5.6-2.9
		c0.9-1.3,12.4-16.6,22.4-29.8c0.1,0,0.2,0,0.2,0l23.8,30.1c2.3,2.9,6.6,3.4,9.5,1.1c2.9-2.3,3.4-6.6,1.1-9.5L74.1,85.6
		c0-0.1,0-0.1,0-0.2c0-4.4,0-11.5,0-18.2c0-5.6,0-10.9,0-13.9c5.1-1.6,9.9-4.5,14.3-8.5c7.1-6.6,12.7-15.9,16.4-27.6
		c0,0,0,0.7,0-0.3h5.2v12.1c0,1,1,1.8,2,1.8c1,0,2-0.8,2-1.8V1.8C114,0.8,113,0,112,0z M80.1,35.7c-4.7,4.4-10.1,6.8-15.6,6.8
		c-5.6,0.1-11.2-2.4-16.2-6.8c-5-4.4-9.2-10.7-12.4-18.7h55.9C88.9,25,84.8,31.3,80.1,35.7z"/>
	<path fill="#ECB200" d="M117.5,0c-1,0-1.5,0.8-1.5,1.8v27.3c0,1,0.5,1.8,1.5,1.8c1,0,1.5-0.8,1.5-1.8V1.8C119,0.8,118.5,0,117.5,0z
		"/>
	<path fill="#ECB200" d="M122.5,0c-1,0-1.5,0.8-1.5,1.8v27.3c0,1,0.5,1.8,1.5,1.8c1,0,1.5-0.8,1.5-1.8V1.8C124,0.8,123.5,0,122.5,0z
		"/>
</g>
</svg>
