<?xml version="1.0" encoding="utf-8"?>
<!-- Generator: Adobe Illustrator 15.1.0, SVG Export Plug-In . SVG Version: 6.00 Build 0)  -->
<!DOCTYPE svg PUBLIC "-//W3C//DTD SVG 1.1//EN" "http://www.w3.org/Graphics/SVG/1.1/DTD/svg11.dtd">
<svg version="1.1" id="Layer_2_copy_4" xmlns="http://www.w3.org/2000/svg" xmlns:xlink="http://www.w3.org/1999/xlink" x="0px"
	 y="0px" viewBox="0.14 841.445 128 128" enable-background="new 0.14 841.445 128 128"
	 xml:space="preserve">
<g>
	<circle fill="#ECB200" cx="30.947" cy="860.741" r="9.98"/>
	<path fill="#ECB200" d="M53.714,872.229c-3.227-1.819-7.315-0.677-9.134,2.55c-1.477,2.622-3.037,4.09-4.637,4.363
		c-2.37,0.404-5.307-1.439-6.521-2.395c-1.112-1.374-2.6-2.474-4.383-3.119c-5.223-1.895-10.992,0.802-12.887,6.025
		c-5.631,15.521-4.688,35.183-4.646,36.012c0.15,2.904,1.519,5.454,3.582,7.186c0.31,4.357,0.25,8.955-0.705,12.462
		c-1.85,6.8-7.282,10.486-10.355,12.078l-0.183,0.095c-3.279,1.722-4.541,5.775-2.819,9.055c1.199,2.285,3.53,3.59,5.942,3.59
		c1.051,0,2.117-0.248,3.112-0.77l0.117-0.062c8.677-4.495,14.76-11.763,17.127-20.465c1.062-3.901,1.492-8.627,1.297-14.095
		c3.041,1.517,5.922,3.62,7.418,6.419c4.259,7.972,2.697,17.429,2.184,19.1c-1.306,3.395,0.338,7.227,3.721,8.611
		c0.832,0.34,1.691,0.501,2.537,0.501c2.642,0,5.146-1.573,6.209-4.169c1.552-3.793,3.766-18.034-2.821-30.362
		c-3.05-5.711-8.7-10.371-16.342-13.484c0-0.978,0.018-2.073,0.058-3.259c1.077,0.2,2.174,0.304,3.287,0.304
		c2.917,0,5.935-0.688,8.953-2.073c3.366-1.544,4.843-5.525,3.299-8.892s-5.525-4.843-8.892-3.298
		c-2.553,1.171-4.152,0.951-5.268,0.428c0.174-0.952,0.368-1.898,0.583-2.832c1.747,0.53,3.668,0.879,5.703,0.879
		c0.914,0,1.852-0.071,2.807-0.226c4.014-0.651,9.737-3.092,14.207-11.024C58.084,878.136,56.942,874.047,53.714,872.229z"/>
	<circle fill="#ECB200" cx="91.318" cy="861.063" r="9.979"/>
	<path fill="#ECB200" d="M124.433,947.486l-0.182-0.095c-3.074-1.592-8.505-5.278-10.355-12.078
		c-0.979-3.601-1.018-8.347-0.681-12.806c3.849-1.736,6.334-5.793,5.868-10.222c-0.087-0.827-2.221-20.395-10.204-34.849
		c-1.916-3.469-5.578-5.359-9.286-5.186l-32.537-2.138c-3.703-0.244-6.888,2.557-7.131,6.252c-0.242,3.696,2.557,6.888,6.252,7.131
		l24.233,1.593c0.205,0.706,0.487,1.401,0.858,2.073c0.586,1.062,1.132,2.176,1.641,3.321c-2.181,0.76-5.311,0.947-10.295-0.02
		c-3.635-0.705-7.154,1.671-7.859,5.308c-0.705,3.635,1.671,7.154,5.307,7.858c3.134,0.608,5.925,0.879,8.426,0.879
		c3.333,0,6.146-0.482,8.564-1.291c0.684,2.882,1.167,5.48,1.49,7.447c-0.539,0.196-1.09,0.405-1.652,0.632
		c-7.712,3.113-13.411,7.797-16.48,13.542c-6.587,12.328-4.373,26.569-2.821,30.362c1.063,2.598,3.567,4.169,6.209,4.169
		c0.846,0,1.706-0.161,2.537-0.501c3.383-1.385,5.026-5.217,3.72-8.611c-0.513-1.672-2.075-11.128,2.184-19.1
		c1.496-2.799,4.377-4.902,7.418-6.419c-0.195,5.469,0.236,10.193,1.297,14.095c2.367,8.702,8.45,15.97,17.127,20.465l0.117,0.062
		c0.995,0.521,2.061,0.77,3.112,0.77c2.412-0.001,4.744-1.306,5.942-3.59C128.975,953.261,127.712,949.208,124.433,947.486z"/>
</g>
</svg>
