<?xml version="1.0" encoding="utf-8"?>
<!-- Generator: Adobe Illustrator 18.0.0, SVG Export Plug-In . SVG Version: 6.00 Build 0)  -->
<!DOCTYPE svg PUBLIC "-//W3C//DTD SVG 1.1//EN" "http://www.w3.org/Graphics/SVG/1.1/DTD/svg11.dtd">
<svg version="1.1" id="Layer_1" xmlns="http://www.w3.org/2000/svg" xmlns:xlink="http://www.w3.org/1999/xlink" x="0px" y="0px"
	 viewBox="0 0 128 128" enable-background="new 0 0 128 128" xml:space="preserve">
<g>
	<path fill="#ECB200" d="M2.3,106.7c5.6,0,8.4,1.4,11.3,2.8c3.1,1.5,6.6,3.3,13.3,3.3c6.7,0,10.2-1.7,13.3-3.3
		c2.9-1.4,5.7-2.8,11.3-2.8c5.6,0,8.4,1.4,11.3,2.8c3.1,1.5,6.6,3.3,13.3,3.3c6.7,0,10.2-1.7,13.3-3.3c2.9-1.4,5.7-2.8,11.3-2.8
		c5.6,0,8.4,1.4,11.3,2.8c3.1,1.5,6.6,3.3,13.3,3.3c1.3,0,2.3-1,2.3-2.3c0-1.3-1-2.3-2.3-2.3c-5.6,0-8.4-1.4-11.3-2.8
		c-3.1-1.5-6.6-3.3-13.3-3.3c-6.7,0-10.2,1.7-13.3,3.3c-2.9,1.4-5.7,2.8-11.3,2.8c-5.6,0-8.4-1.4-11.3-2.8
		c-3.1-1.5-6.6-3.3-13.3-3.3c-6.7,0-10.2,1.7-13.3,3.3c-2.9,1.4-5.7,2.8-11.3,2.8c-5.6,0-8.4-1.4-11.3-2.8
		c-3.1-1.5-6.6-3.3-13.3-3.3c-1.3,0-2.3,1-2.3,2.3C0,105.7,1,106.7,2.3,106.7z"/>
	<path fill="#ECB200" d="M125.7,119.2c-5.6,0-8.4-1.4-11.3-2.8c-3.1-1.5-6.6-3.3-13.3-3.3c-6.7,0-10.2,1.7-13.3,3.3
		c-2.9,1.4-5.7,2.8-11.3,2.8c-5.6,0-8.4-1.4-11.3-2.8c-3.1-1.5-6.6-3.3-13.3-3.3c-6.7,0-10.2,1.7-13.3,3.3
		c-2.9,1.4-5.7,2.8-11.3,2.8c-5.6,0-8.4-1.4-11.3-2.8c-3.1-1.5-6.6-3.3-13.3-3.3c-1.3,0-2.3,1-2.3,2.3c0,1.3,1,2.3,2.3,2.3
		c5.6,0,8.4,1.4,11.3,2.8c3.1,1.5,6.6,3.3,13.3,3.3c6.7,0,10.2-1.7,13.3-3.3c2.9-1.4,5.7-2.8,11.3-2.8c5.6,0,8.4,1.4,11.3,2.8
		c3.1,1.5,6.6,3.3,13.3,3.3c6.7,0,10.2-1.7,13.3-3.3c2.9-1.4,5.7-2.8,11.3-2.8c5.6,0,8.4,1.4,11.3,2.8c3.1,1.5,6.6,3.3,13.3,3.3
		c1.3,0,2.3-1,2.3-2.3C128,120.2,127,119.2,125.7,119.2z"/>
	<path fill="#ECB200" d="M34.7,30c-0.2,0-0.3,0.1-0.4,0.1l0,0c-0.2,0.1-0.3,0.1-0.5,0.2c-6.1,2.7-8.9,9.9-6.2,16
		c6.8,15.2,15.1,27.5,25.5,37.5c2.4,2.3,5.4,3.4,8.4,3.4c0.2,0,0.5,0,0.7,0c0.1,0,0.1,0,0.2,0c1.4,0,2.8-0.4,4.1-1.1
		c1.1-0.5,2.1-1.1,3-1.9c9-6.3,17.2-16,22.7-23.4c7.1-9.5,13.7-20.4,18.2-29.8c2-4.2,0.2-9.1-4-11.1c-4.2-2-9.1-0.2-11.1,4
		c-2.4,5.2-5.7,11-9.4,16.7c-12.3-6.7-24.4-10.5-35.9-11.4c-4.9-0.4-8.8-0.2-11.5,0.2C37.3,29.3,36,29.5,34.7,30z M67.6,64
		c-5.2-5.4-9.7-11.7-13.7-19.1c8.8,1.5,17,4.9,23.2,8.2C74,57.2,70.7,60.9,67.6,64z"/>
	<path fill="#ECB200" d="M35.3,25.6c5.7-3.2,7.9-10.3,4.8-15.7c-3.1-5.4-10.2-7.2-16-4c-5.7,3.2-7.9,10.3-4.8,15.7
		C22.5,27,29.6,28.8,35.3,25.6z"/>
</g>
</svg>
