<?xml version="1.0" encoding="utf-8"?>
<!-- Generator: Adobe Illustrator 18.0.0, SVG Export Plug-In . SVG Version: 6.00 Build 0)  -->
<!DOCTYPE svg PUBLIC "-//W3C//DTD SVG 1.1//EN" "http://www.w3.org/Graphics/SVG/1.1/DTD/svg11.dtd">
<svg version="1.1" id="Layer_1" xmlns="http://www.w3.org/2000/svg" xmlns:xlink="http://www.w3.org/1999/xlink" x="0px" y="0px"
	 viewBox="0 0 128 128" enable-background="new 0 0 128 128" xml:space="preserve">
<g>
	<path fill="#ECB200" d="M76.9,54.8c6.5,1.3,12.7-2.7,13.9-8.8c1.2-6.1-3.1-12.1-9.6-13.4c-6.5-1.3-12.7,2.7-13.9,8.8
		C66.1,47.5,70.4,53.5,76.9,54.8z"/>
	<path fill="#ECB200" d="M2.3,78.7c5.6,0,8.4,1.4,11.3,2.8c3.1,1.5,6.6,3.3,13.3,3.3c6.7,0,10.2-1.7,13.3-3.3
		c2.9-1.4,5.7-2.8,11.3-2.8c5.6,0,8.4,1.4,11.3,2.8c3.1,1.5,6.6,3.3,13.3,3.3c6.7,0,10.2-1.7,13.3-3.3c2.9-1.4,5.7-2.8,11.3-2.8
		c5.6,0,8.4,1.4,11.3,2.8c3.1,1.5,6.6,3.3,13.3,3.3c1.3,0,2.3-1,2.3-2.3c0-1.3-1-2.3-2.3-2.3c-5.6,0-8.4-1.4-11.3-2.8
		c-1.4-0.7-2.8-1.4-4.6-2c6.6-1.1,10.7-2.5,11-2.6c3.9-1.4,5.9-5.8,4.5-9.7c-1.4-3.9-5.8-5.9-9.7-4.5c-0.4,0.1-36,12.8-69.3-16.3
		c-5.4-4.7-12.4-1.3-14.7-0.1c-3.6,1.8-8.5,4.8-16.3,10.1c-3.5,2.4-4.4,7.1-2,10.5c2.4,3.5,7.1,4.4,10.5,2
		c8.3-5.6,12.6-8.1,14.7-9.2c3,2.5,6,4.6,9,6.6c-7,7.1-19,14-25.8,17.6c-2.4-0.5-4.1-1.4-6-2.3c-3.1-1.5-6.6-3.3-13.3-3.3
		c-1.3,0-2.3,1-2.3,2.3C0,77.6,1,78.7,2.3,78.7z"/>
	<path fill="#ECB200" d="M125.7,91.1c-5.6,0-8.4-1.4-11.3-2.8c-3.1-1.5-6.6-3.3-13.3-3.3s-10.2,1.7-13.3,3.3
		c-2.9,1.4-5.7,2.8-11.3,2.8c-5.6,0-8.4-1.4-11.3-2.8c-3.1-1.5-6.6-3.3-13.3-3.3c-6.7,0-10.2,1.7-13.3,3.3
		c-2.9,1.4-5.7,2.8-11.3,2.8c-5.6,0-8.4-1.4-11.3-2.8C12.5,86.8,9,85,2.3,85C1,85,0,86.1,0,87.3c0,1.3,1,2.3,2.3,2.3
		c5.6,0,8.4,1.4,11.3,2.8c3.1,1.5,6.6,3.3,13.3,3.3c6.7,0,10.2-1.7,13.3-3.3c2.9-1.4,5.7-2.8,11.3-2.8c5.6,0,8.4,1.4,11.3,2.8
		c3.1,1.5,6.6,3.3,13.3,3.3c6.7,0,10.2-1.7,13.3-3.3c2.9-1.4,5.7-2.8,11.3-2.8c5.6,0,8.4,1.4,11.3,2.8c3.1,1.5,6.6,3.3,13.3,3.3
		c1.3,0,2.3-1,2.3-2.3C128,92.1,127,91.1,125.7,91.1z"/>
</g>
</svg>
