<?xml version="1.0" encoding="utf-8"?>
<!-- Generator: Adobe Illustrator 18.0.0, SVG Export Plug-In . SVG Version: 6.00 Build 0)  -->
<!DOCTYPE svg PUBLIC "-//W3C//DTD SVG 1.1//EN" "http://www.w3.org/Graphics/SVG/1.1/DTD/svg11.dtd">
<svg version="1.1" id="Layer_1" xmlns="http://www.w3.org/2000/svg" xmlns:xlink="http://www.w3.org/1999/xlink" x="0px" y="0px"
	 viewBox="0 0 128 128" enable-background="new 0 0 128 128" xml:space="preserve">
<g>
	<path fill="#ECB200" d="M52.6,21.5c6.3,0,11.3-4.8,11.3-10.7C64,4.8,58.9,0,52.6,0c-6.3,0-11.4,4.8-11.4,10.7
		C41.3,16.7,46.4,21.5,52.6,21.5z"/>
	<path fill="#ECB200" d="M114.9,30.1c-3.8-9.4-7.6-15-7.7-15.2c-0.4-0.6-1.1-1-1.9-1c-13.4,0.4-27.2,7.4-39.9,20.3
		c-1.4,1.5-2.8,2.9-4,4.3c-1.5-2.2-2.9-4.6-4.2-6.9c-0.4-1.1-1-2.1-1.7-3c-0.8-1.4-2.1-2.5-3.5-3.1c-2.4-1.4-5.4-1.9-8.3-1.1
		c-4.6,1.2-7.9,5.5-8.8,10.7c-0.1,0.5-0.3,1.6-0.4,2.3C33.2,44.3,30.5,58,31.2,72H7.3c-1.2,0-2.2,0.8-2.2,2s1,2,2.2,2h24.4
		c1.1,5,4.4,7.3,8.5,8.3c0,0,0.1,0.1,0.1,0.1c3,1.5,8.1,4,12.4,7c5.9,4.1,6.4,6.4,6.4,6.4c0.5,3.5,0.8,5.7-11.6,16.2
		c-3.4,2.8-3.8,7.8-1,11.2c1.6,1.9,3.8,2.8,6.1,2.8c1.8,0,3.6-0.6,5.1-1.9c13-10.9,18.9-18.3,17.2-30.6
		c-1.3-9.2-10.3-16.1-20.5-21.8c0-0.5,0-1.1,0-1.6c-0.5-6,0-12.3,0.7-17.9c3.7,4.5,7,7.6,10.2,9.2c7.5,3.9,14.7,4.4,18.2,4.4
		c1,0,1.9-0.1,1.9-0.1c3.7-0.5,6.5-3.5,6.5-7.1c0-4-3.4-7.2-7.6-7.2c0,0-0.1,0-0.1,0c0,0-6.2,0.3-12.3-2.8c-2-1-4.9-4.3-7.9-8.4
		c8.9-10.3,23.1-22.9,40.2-23.9c2.8,4.5,13.7,24,14.3,48.7c-2.6,1.9-7.9,4.9-12.1,4.4l-3.3-9.3c-0.4-1.1-1.6-1.7-2.8-1.3
		c-1.1,0.4-1.7,1.6-1.3,2.8l3.8,10.4c0.2,0.6,0.8,1.1,1.4,1.3c1,0.3,2.1,0.4,3.2,0.4c7.1,0,14.3-5.7,14.6-6c0.5-0.4,0.8-1,0.8-1.7
		C122.7,52.3,118.5,38.7,114.9,30.1z"/>
	<circle fill="#ECB200" cx="89.7" cy="93.9" r="5.9"/>
	<circle fill="#ECB200" cx="113.9" cy="93.9" r="5.9"/>
	<circle fill="#ECB200" cx="101.9" cy="105.9" r="5.9"/>
	<circle fill="#ECB200" cx="89.7" cy="117.9" r="5.9"/>
	<circle fill="#ECB200" cx="113.9" cy="117.9" r="5.9"/>
</g>
</svg>
