<?xml version="1.0" encoding="utf-8"?>
<!-- Generator: Adobe Illustrator 18.0.0, SVG Export Plug-In . SVG Version: 6.00 Build 0)  -->
<!DOCTYPE svg PUBLIC "-//W3C//DTD SVG 1.1//EN" "http://www.w3.org/Graphics/SVG/1.1/DTD/svg11.dtd">
<svg version="1.1" id="Layer_1" xmlns="http://www.w3.org/2000/svg" xmlns:xlink="http://www.w3.org/1999/xlink" x="0px" y="0px"
	 viewBox="0 0 128 128" enable-background="new 0 0 128 128" xml:space="preserve">
<g>
	<path fill="#ECB200" d="M35.8,45.3c7.8,0,14.2-6.1,14.2-13.6c0-7.5-6.4-13.6-14.2-13.6c-7.8,0-14.2,6.1-14.2,13.6
		C21.6,39.2,28,45.3,35.8,45.3z M35.8,22.7c5.3,0,9.7,4,9.7,9c0,5-4.3,9-9.7,9c-5.3,0-9.7-4-9.7-9C26.2,26.7,30.5,22.7,35.8,22.7z"
		/>
	<path fill="#ECB200" d="M68.9,67.6c6.6,0,11.9-5.1,11.9-11.3c0-6.2-5.3-11.3-11.9-11.3C62.3,45,57,50.1,57,56.3
		C57,62.5,62.3,67.6,68.9,67.6z"/>
	<path fill="#ECB200" d="M2.3,92.9c5.6,0,8.4,1.4,11.3,2.8c3.1,1.5,6.6,3.3,13.3,3.3c6.7,0,10.2-1.7,13.3-3.3
		c2.9-1.4,5.7-2.8,11.3-2.8c5.6,0,8.4,1.4,11.3,2.8c3.1,1.5,6.6,3.3,13.3,3.3c6.7,0,10.2-1.7,13.3-3.3c2.9-1.4,5.7-2.8,11.3-2.8
		c5.6,0,8.4,1.4,11.3,2.8c3.1,1.5,6.6,3.3,13.3,3.3c1.3,0,2.3-1,2.3-2.3c0-1.3-1-2.3-2.3-2.3c-5.6,0-8.4-1.4-11.3-2.8
		c-3.1-1.5-6.6-3.3-13.3-3.3c-0.9,0-1.8,0-2.6,0.1c-0.8-1.8-1.7-3.5-2.8-5c-0.2-0.4-0.4-0.7-0.7-1.1c-7.5-10.1-16.6-11.5-34.2-12.3
		c-18.5-0.8-26.8-6-30.5-10.2c-3.6-4.1-3.6-8-3.6-8l0,0c0-3.9-3.4-7.1-7.5-7.1c-3.8,0-7,2.7-7.5,6.3c0,0-0.4,10.3,7.6,19.2
		c5.8,6.4,14.2,10.7,25.2,13.1c-1.8,3.5-4.9,6.7-7.6,9c-2.4,1.1-5.1,2-9.7,2c-5.6,0-8.4-1.4-11.3-2.8c-3.1-1.5-6.6-3.3-13.3-3.3
		c-1.3,0-2.3,1-2.3,2.3C0,91.8,1,92.9,2.3,92.9z"/>
	<path fill="#ECB200" d="M125.7,105.3c-5.6,0-8.4-1.4-11.3-2.8c-3.1-1.5-6.6-3.3-13.3-3.3c-6.7,0-10.2,1.7-13.3,3.3
		c-2.9,1.4-5.7,2.8-11.3,2.8c-5.6,0-8.4-1.4-11.3-2.8c-3.1-1.5-6.6-3.3-13.3-3.3c-6.7,0-10.2,1.7-13.3,3.3
		c-2.9,1.4-5.7,2.8-11.3,2.8s-8.4-1.4-11.3-2.8C12.5,101,9,99.2,2.3,99.2c-1.3,0-2.3,1-2.3,2.3c0,1.3,1,2.3,2.3,2.3
		c5.6,0,8.4,1.4,11.3,2.8c3.1,1.5,6.6,3.3,13.3,3.3c6.7,0,10.2-1.7,13.3-3.3c2.9-1.4,5.7-2.8,11.3-2.8c5.6,0,8.4,1.4,11.3,2.8
		c3.1,1.5,6.6,3.3,13.3,3.3c6.7,0,10.2-1.7,13.3-3.3c2.9-1.4,5.7-2.8,11.3-2.8c5.6,0,8.4,1.4,11.3,2.8c3.1,1.5,6.6,3.3,13.3,3.3
		c1.3,0,2.3-1,2.3-2.3C128,106.3,127,105.3,125.7,105.3z"/>
</g>
</svg>
