<?xml version="1.0" encoding="utf-8"?>
<!-- Generator: Adobe Illustrator 18.0.0, SVG Export Plug-In . SVG Version: 6.00 Build 0)  -->
<!DOCTYPE svg PUBLIC "-//W3C//DTD SVG 1.1//EN" "http://www.w3.org/Graphics/SVG/1.1/DTD/svg11.dtd">
<svg version="1.1" id="Layer_1" xmlns="http://www.w3.org/2000/svg" xmlns:xlink="http://www.w3.org/1999/xlink" x="0px" y="0px"
	 viewBox="0 0 128 128" enable-background="new 0 0 128 128" xml:space="preserve">
<g>
	<path fill="#ECB200" d="M81.6,27c6.6,0.3,12.1-4.6,12.3-10.8C94.2,10.1,89,4.8,82.5,4.6c-6.6-0.3-12.1,4.6-12.3,10.8
		C69.9,21.5,75,26.8,81.6,27z"/>
	<path fill="#ECB200" d="M125.4,85h-14c1.1-2,1.6-4,1.4-6.4l-0.2-2.5c-1.2-16.5-1.9-26.5-8.8-40.7c-1.3-2.6-3.4-4.6-5.9-5.7
		c-0.6-0.3-1.3-0.6-2-0.7c-1.7-0.4-3.6-0.5-5.4-0.1c-12.4,0.1-24,1.3-34.4,3.4c-3.7,0.8-7.1,1.6-10.1,2.5c-1.3,0.4-2.4,0.7-3.4,1.2
		c-0.8,0.3-1.5,0.7-2.2,1.2c-0.6,0.5-1.2,1-1.7,1.8c0,0,0,0,0,0c0,0,0,0,0,0c-0.8,1.2-1.3,2.7-1.3,4.3c0,4.3,3.4,7.7,7.7,7.7
		c1.1,0,2.2-0.2,3.2-0.7l12.3,9.3c-0.7,0.8-1.3,1.7-1.7,2.7c-0.4,0.8-0.7,1.5-1,2.2c-2.4,5.1-3.8,8.2-5.8,19.2
		c-0.1,0.5-0.1,1.2-0.1,1.2H16.3c-1.7,0-3,1.6-3,3.2c0,6,4.3,11.1,12.6,15c2.6,1.2,5.7,2.3,9.1,3.3c-2.1,0.8-4.6,1.5-8.3,1.5
		c-5.6,0-8.4-1.3-11.3-2.8c-3.1-1.5-6.6-3.2-13.3-3.2c-1.3,0-2.3,1-2.3,2.3s1,2.3,2.3,2.3c5.6,0,8.4,1.4,11.3,2.8
		c3.1,1.5,6.6,3.3,13.3,3.3s10.2-1.7,13.3-3.2c0.7-0.3,1.3-0.7,2-1c3.3,0.7,6.9,1.4,10.8,2c13,2,27.4,2.9,40.3,3.4
		c-2.4,0.6-4.3,1.5-6,2.4c-2.9,1.4-5.7,2.8-11.3,2.8c-5.6,0-8.4-1.4-11.3-2.8c-3.1-1.5-6.6-3.3-13.3-3.3s-10.2,1.7-13.3,3.3
		c-2.9,1.4-5.7,2.8-11.3,2.8c-5.6,0-8.4-1.4-11.3-2.8c-3.1-1.5-6.6-3.3-13.3-3.3c-1.3,0-2.3,1-2.3,2.3c0,1.3,1,2.3,2.3,2.3
		c5.6,0,8.4,1.4,11.3,2.8c3.1,1.5,6.6,3.3,13.3,3.3s10.2-1.7,13.3-3.3c2.9-1.4,5.7-2.8,11.3-2.8c5.6,0,8.4,1.4,11.3,2.8
		c3.1,1.5,6.6,3.3,13.3,3.3c6.7,0,10.2-1.7,13.3-3.3c2.9-1.4,5.7-2.8,11.3-2.8c5.6,0,8.4,1.4,11.3,2.8c3.1,1.5,6.6,3.3,13.3,3.3
		c1.3,0,2.3-1,2.3-2.3c0-1.3-1-2.3-2.3-2.3c-5.6,0-8.4-1.4-11.3-2.8c-1.5-0.7-3-1.5-4.9-2.1c1.1,0,2.2,0,3.3,0
		c8,0,13.1-0.2,13.1-0.2c1.6-0.1,2.7-1.4,2.7-3V88.4C128,86.8,127.1,85,125.4,85z M68.6,85c1.1-6,1.9-8.3,2.9-10.7
		c2.4,1.7,5.4,4,7.5,5.7c2.2,1.8,4.3,3.9,6.3,4.9H68.6z M66.2,56.2c-0.6,0.2-1.3,0.4-1.8,0.6l-11-8.4c5.5-1.4,14.9-3.4,28.1-4.1
		c0.2,0.6,0.4,1.1,0.7,1.7c3.4,7,4.7,12,5.5,19.9C79.5,59.5,73,54.6,66.2,56.2z"/>
</g>
</svg>
