<?xml version="1.0" encoding="utf-8"?>
<!-- Generator: Adobe Illustrator 18.0.0, SVG Export Plug-In . SVG Version: 6.00 Build 0)  -->
<!DOCTYPE svg PUBLIC "-//W3C//DTD SVG 1.1//EN" "http://www.w3.org/Graphics/SVG/1.1/DTD/svg11.dtd">
<svg version="1.1" id="Layer_1" xmlns="http://www.w3.org/2000/svg" xmlns:xlink="http://www.w3.org/1999/xlink" x="0px" y="0px"
	 viewBox="0 0 128 128" enable-background="new 0 0 128 128" xml:space="preserve">
<g>
	<path fill="#ECB200" d="M89.4,23.3c6.2,3.8,14.1,2.2,17.8-3.6c3.6-5.9,1.6-13.7-4.6-17.5c-6.2-3.8-14.1-2.2-17.8,3.7
		C81.1,11.6,83.2,19.4,89.4,23.3z"/>
	<path fill="#ECB200" d="M124.2,53.5c-1.7-2.8-11-16.5-38.5-30c-2.2-1.1-4.3-2.2-6.3-3.2c-8-4.2-15-7.8-23.2-8
		c-9-0.2-17.8,3.8-27.6,12.7c-3.4,3.1-3.7,8.4-0.6,11.8c3.1,3.4,8.4,3.7,11.8,0.6c8.5-7.7,13.2-8.4,16-8.4c2.4,0.1,5.1,0.9,8.1,2.2
		c-4.9,3.4-13,8.4-23.9,13.8c-6.6,3.3-9.4,11.3-6.1,17.9c0.6,1.3,1.5,2.4,2.4,3.4C35.6,74.7,34.8,82,29,91.4
		c-3.2,5.1-6.8,7.7-15.4,14.1c-2.3,1.7-5,3.7-8,6c-4,3.1-4.8,8.9-1.8,12.9c1.8,2.4,4.6,3.6,7.3,3.6c1.9,0,3.9-0.6,5.6-1.9
		c2.9-2.2,5.5-4.2,7.8-5.9c9.4-6.9,15-11.1,20-19.1c5.2-8.3,7.5-15.6,8.7-22.3c3.6,4.9,7,10.2,8.6,14.7c0.9,2.6,0.3,3.9,0,4.3
		c-0.7,1.4-3.6,5-14.2,8.1c-4.9,1.4-7.7,6.5-6.3,11.4c1.1,4.1,4.8,6.7,8.8,6.7c0.8,0,1.7-0.1,2.5-0.4c13-3.7,21.6-9.5,25.6-17.4
		c3-5.8,3.3-12.4,0.8-19c-3.1-8.3-9.5-17.4-15.2-24.5c5.5-3.1,9.8-5.8,13-7.9C85,49.3,88,46.5,89.4,44.7
		c14.3,8.8,19.6,16.2,20.4,17.4c0.7,1.4,1.8,2.6,3.2,3.5c4.1,2.6,9.4,1.5,11.8-2.4C126.8,60.1,126.4,56.3,124.2,53.5z"/>
	<path fill="#ECB200" d="M89.6,56.5c-5,0-9.7,1.6-12.4,4.4c-1.6,1.6-2.5,3.6-2.5,5.6c0,5.6,6.6,9.9,15,9.9c5,0,9.6-1.6,12.4-4.4
		c1.6-1.6,2.5-3.6,2.5-5.6C104.5,60.8,97.9,56.5,89.6,56.5z M98.8,68.7c-1.9,1.9-5.4,3.1-9.1,3.1c-4.9,0-10.4-2.3-10.4-5.4
		c0-0.8,0.4-1.6,1.2-2.4c1.9-1.9,5.4-3,9.2-3c6.1,0,10.4,2.8,10.4,5.4C99.9,67.2,99.6,68,98.8,68.7z"/>
</g>
</svg>
