<?xml version="1.0" encoding="utf-8"?>
<!-- Generator: Adobe Illustrator 18.0.0, SVG Export Plug-In . SVG Version: 6.00 Build 0)  -->
<!DOCTYPE svg PUBLIC "-//W3C//DTD SVG 1.1//EN" "http://www.w3.org/Graphics/SVG/1.1/DTD/svg11.dtd">
<svg version="1.1" id="Layer_1" xmlns="http://www.w3.org/2000/svg" xmlns:xlink="http://www.w3.org/1999/xlink" x="0px" y="0px"
	 viewBox="0 0 45 45" enable-background="new 0 0 45 45" xml:space="preserve">
<g>
	<path fill="#ECB200" d="M0.9,37.3c2,0,2.9,0.5,4,1c1.1,0.5,2.3,1.1,4.7,1.1c2.3,0,3.6-0.6,4.7-1.1c1-0.5,2-1,4-1c2,0,2.9,0.5,4,1
		c1.1,0.5,2.3,1.1,4.7,1.1c2.3,0,3.6-0.6,4.7-1.1c1-0.5,2-1,4-1c2,0,2.9,0.5,4,1c1.1,0.5,2.3,1.1,4.7,1.1c0.4,0,0.8-0.4,0.8-0.8
		c0-0.4-0.4-0.8-0.8-0.8c-2,0-2.9-0.5-4-1c-1.1-0.5-2.3-1.1-4.7-1.1c-2.3,0-3.6,0.6-4.7,1.1c-1,0.5-2,1-4,1c-2,0-2.9-0.5-4-1
		c-1.1-0.5-2.3-1.1-4.7-1.1c-2.3,0-3.6,0.6-4.7,1.1c-1,0.5-2,1-4,1c-2,0-2.9-0.5-4-1c-1.1-0.5-2.3-1.1-4.7-1.1
		c-0.4,0-0.8,0.4-0.8,0.8C0.1,37,0.4,37.3,0.9,37.3z"/>
	<path fill="#ECB200" d="M44.2,41.7c-2,0-2.9-0.5-4-1c-1.1-0.5-2.3-1.1-4.7-1.1c-2.3,0-3.6,0.6-4.7,1.1c-1,0.5-2,1-4,1
		c-2,0-2.9-0.5-4-1c-1.1-0.5-2.3-1.1-4.7-1.1c-2.3,0-3.6,0.6-4.7,1.1c-1,0.5-2,1-4,1c-2,0-2.9-0.5-4-1c-1.1-0.5-2.3-1.1-4.7-1.1
		c-0.4,0-0.8,0.4-0.8,0.8c0,0.4,0.4,0.8,0.8,0.8c2,0,2.9,0.5,4,1c1.1,0.5,2.3,1.1,4.7,1.1c2.3,0,3.6-0.6,4.7-1.1c1-0.5,2-1,4-1
		c2,0,2.9,0.5,4,1c1.1,0.5,2.3,1.1,4.7,1.1c2.3,0,3.6-0.6,4.7-1.1c1-0.5,2-1,4-1c2,0,2.9,0.5,4,1c1.1,0.5,2.3,1.1,4.7,1.1
		c0.4,0,0.8-0.4,0.8-0.8S44.6,41.7,44.2,41.7z"/>
	<path fill="#ECB200" d="M12.2,10.4c-0.1,0-0.1,0-0.1,0l0,0c-0.1,0-0.1,0-0.2,0.1c-2.1,1-3.1,3.5-2.2,5.6c2.4,5.3,5.3,9.6,8.9,13.1
		c0.8,0.8,1.9,1.2,2.9,1.2c0.1,0,0.2,0,0.3,0c0,0,0.1,0,0.1,0c0.5,0,1-0.1,1.4-0.4c0.4-0.2,0.7-0.4,1-0.7c3.1-2.2,6-5.6,8-8.2
		c2.5-3.3,4.8-7.1,6.4-10.5c0.7-1.5,0.1-3.2-1.4-3.9c-1.5-0.7-3.2-0.1-3.9,1.4c-0.9,1.8-2,3.9-3.3,5.9c-4.3-2.3-8.5-3.7-12.6-4
		c-1.7-0.1-3.1-0.1-4,0.1C13.2,10.2,12.7,10.3,12.2,10.4z M23.8,22.4c-1.8-1.9-3.4-4.1-4.8-6.7c3.1,0.5,5.9,1.7,8.1,2.9
		C26,20,24.9,21.3,23.8,22.4z"/>
	<ellipse transform="matrix(0.4924 0.8704 -0.8704 0.4924 10.0789 -6.4002)" fill="#ECB200" cx="10.5" cy="5.4" rx="4" ry="4.2"/>
</g>
</svg>
