<?xml version="1.0" encoding="utf-8"?>
<!-- Generator: Adobe Illustrator 18.0.0, SVG Export Plug-In . SVG Version: 6.00 Build 0)  -->
<!DOCTYPE svg PUBLIC "-//W3C//DTD SVG 1.1//EN" "http://www.w3.org/Graphics/SVG/1.1/DTD/svg11.dtd">
<svg version="1.1" id="Layer_1" xmlns="http://www.w3.org/2000/svg" xmlns:xlink="http://www.w3.org/1999/xlink" x="0px" y="0px"
	 viewBox="0 0 128 128" enable-background="new 0 0 128 128" xml:space="preserve">
<g>
	<path fill="#ECB200" d="M110.6,14.2c-3.1-3.1-8.1-3.1-11.1,0C85.4,28.3,73.8,43.8,65.8,55.4C62,44.1,61,34.4,61,32.7
		c0-1.5-0.3-3-0.9-4.3c12.7-8.2,24.4-13.7,24.7-13.8c3.6-1.7,5.1-5.9,3.5-9.5c-1.7-3.6-5.9-5.1-9.5-3.5C78.1,1.9,62.5,9.2,47,19.9
		C37.7,26.4,30.3,32.8,25.1,39c-7.3,8.6-10.7,17.1-9.9,25.2c0.3,3.7,3.5,6.5,7.1,6.5c0.2,0,0.4,0,0.7,0c3.9-0.4,6.8-3.8,6.5-7.8
		c-0.5-5,3.1-11.3,10-18.3c1.4,8,4.1,18.4,8.7,28.5c0.7,1.6,1.8,3,3.1,4.1c-10.6,16.6-16.5,33.5-16.8,42.7c-0.2,4.3,3.2,8,7.6,8.2
		c0.1,0,0.2,0,0.3,0c4.2,0,7.7-3.3,7.9-7.6c0.1-2.4,1.3-7.9,4.2-15.4c2.3-5.7,6.5-14.5,13.3-24.1c0.2-0.2,0.4-0.5,0.6-0.7
		c0.8-1.1,1.7-2.6,3-4.5c6.8-10.3,20.9-31.8,39.5-50.4C113.7,22.3,113.7,17.3,110.6,14.2z"/>
	<path fill="#ECB200" d="M36.8,21.3C43,21.3,48,16.6,48,10.7C48,4.8,43,0,36.8,0c-6.2,0-11.3,4.8-11.3,10.7
		C25.5,16.6,30.5,21.3,36.8,21.3z"/>
</g>
</svg>
