<?xml version="1.0" encoding="utf-8"?>
<!-- Generator: Adobe Illustrator 18.0.0, SVG Export Plug-In . SVG Version: 6.00 Build 0)  -->
<!DOCTYPE svg PUBLIC "-//W3C//DTD SVG 1.1//EN" "http://www.w3.org/Graphics/SVG/1.1/DTD/svg11.dtd">
<svg version="1.1" id="Layer_1" xmlns="http://www.w3.org/2000/svg" xmlns:xlink="http://www.w3.org/1999/xlink" x="0px" y="0px"
	 viewBox="0 0 128 128" enable-background="new 0 0 128 128" xml:space="preserve">
<g>
	<path fill="#ECB200" d="M68.8,50c4.7,0,8.5-3.6,8.5-8s-3.8-8-8.5-8c-4.7,0-8.5,3.6-8.5,8S64.1,50,68.8,50z"/>
	<path fill="#ECB200" d="M99.3,35.1c-0.7-2.9-3.6-4.7-6.5-4c-0.2,0-0.4,0.1-0.5,0.2l-7.8-10.7c1-1.5,1.6-3.4,1.4-5.6
		c-0.1-2.9-1.3-5.9-3.2-8.6C79.8,2.4,75.7,0,71.9,0c-1.6,0-3,0.5-4.2,1.3c-4.1,3-4,9.9,0.3,15.7c2.9,3.9,7,6.4,10.7,6.4
		c1.2,0,2.3-0.3,3.3-0.7l7.7,10.6c-0.9,1.2-1.2,2.8-0.9,4.4c1,4.1-0.2,6.2-1.4,7.5c-2.3,2.6-9.3,7.1-29.7,7.6
		c-12.3,0.3-23.4-1-23.6-1.1c-3-0.4-5.7,1.7-6,4.7c-0.4,3,1.7,5.7,4.7,6c0.4,0.1,9.6,1.2,21,1.2c1.3,0,2.7,0,4.1-0.1
		c0.9,0,1.7-0.1,2.5-0.1c0,0.1,0,0.2,0,0.2c0.3,2,1.2,8.1-2.9,17.5c-0.4,0.8-0.6,1.6-0.7,2.4c-7.5,5.8-15.5,13.7-15.6,22.3
		c-0.1,8.1,4.8,13.6,8.7,17.9c0.6,0.7,1.3,1.4,1.8,2.1c1.2,1.4,2.8,2.1,4.5,2.1c1.4,0,2.7-0.5,3.9-1.4c2.5-2.1,2.8-5.9,0.6-8.4
		c-0.7-0.8-1.4-1.6-2-2.3c-3.5-3.9-5.7-6.5-5.7-9.9c0-0.7,0.5-3.9,7.4-10c0,0.2,0.1,0.4,0.1,0.6c1.7,8.4,4.7,14.7,9,18.9
		c3.3,3.2,5.8,5.2,9,7.6c0.8,0.6,1.7,1.3,2.7,2.1c1.1,0.9,2.4,1.3,3.7,1.3c1.8,0,3.5-0.8,4.7-2.3c2-2.6,1.6-6.3-1-8.3
		c-1-0.8-1.9-1.5-2.8-2.2c-3.1-2.4-5.2-4-8-6.7c-3.8-3.7-5.6-11.2-6.3-16.4c0.7-0.7,1.2-1.5,1.7-2.5c4.1-9.2,5.5-18.2,4.3-26.9
		c0.3-0.1,0.5-0.1,0.8-0.2c7.7-1.8,13.5-4.8,17.1-8.8C98.3,49.1,101.3,43.5,99.3,35.1z M81,19.5c-0.6,0.5-1.4,0.7-2.3,0.7
		c-2.7,0-5.8-2-8.1-5c-3.1-4.2-3.5-9.3-1-11.2c0.6-0.5,1.4-0.7,2.3-0.7c2.7,0,5.8,2,8.1,5c1.6,2.2,2.5,4.6,2.6,6.8
		C82.7,17.1,82.1,18.6,81,19.5z"/>
</g>
</svg>
