<?xml version="1.0" encoding="utf-8"?>
<!-- Generator: Adobe Illustrator 18.0.0, SVG Export Plug-In . SVG Version: 6.00 Build 0)  -->
<!DOCTYPE svg PUBLIC "-//W3C//DTD SVG 1.1//EN" "http://www.w3.org/Graphics/SVG/1.1/DTD/svg11.dtd">
<svg version="1.1" id="Layer_1" xmlns="http://www.w3.org/2000/svg" xmlns:xlink="http://www.w3.org/1999/xlink" x="0px" y="0px"
	 viewBox="0 0 128 128" enable-background="new 0 0 128 128" xml:space="preserve">
<g>
	<path fill="#ECB200" d="M54.3,21.5c6.3,0,11.4-4.8,11.4-10.8C65.7,4.8,60.6,0,54.3,0C48,0,42.9,4.8,42.9,10.8
		C42.9,16.7,48,21.5,54.3,21.5z"/>
	<ellipse fill="#ECB200" cx="114.7" cy="35.2" rx="3.6" ry="3.4"/>
	<path fill="#ECB200" d="M103.1,13.8c-4.5-1.5-9.9,2.8-12.1,9.5c-1.5,4.5-1.2,9,0.6,11.9l0,0c0,0,0.9,1.4,0.6,3.2
		c-1.8-0.2-3.8,0.3-5.3,1.5c-1.6,1.3-6.4,5.1-17.3-1.9c-6.8-4.4-11.9-10.4-12-10.5c-0.6-0.7-1.2-1.2-1.9-1.6l0,0
		c-0.9-0.7-9.4-7.1-20.4-3.6C24.4,25.8,15.9,37.5,10,57.1c-1.2,3.8,1,7.9,4.8,9c0.7,0.2,1.4,0.3,2.1,0.3c3.1,0,6-2,6.9-5.1
		c5.8-19.1,12.3-23.9,15.6-25c0.6-0.2,1.2-0.3,1.8-0.4c-0.3,1-0.5,2.1-0.5,3.2c0,0.1,0,0.2,0,0.3c-0.5,10.8,1.3,22.4,5.3,34.3
		c0.4,1.2,1,2.3,1.7,3.2c-1.6,5.6-4.7,13.7-9.8,20.7c-0.8,1.1-1.5,2.1-2.2,3.1c-3,4.3-5.4,7.7-9.8,11.1c-3.4,2.7-4,7.7-1.3,11.2
		c1.6,2,3.9,3,6.2,3c1.7,0,3.5-0.6,4.9-1.7c6.2-4.9,9.6-9.7,12.9-14.4c0.7-1,1.4-1.9,2.1-2.9c6-8.2,9.5-17.1,11.4-23
		c10.6,9,11.2,13.7,11.2,14.6c0,4.5-2.9,7.9-7.6,13.2c-0.9,1-1.8,2-2.7,3.1c-2.9,3.3-2.5,8.4,0.9,11.2c1.5,1.3,3.3,1.9,5.2,1.9
		c2.2,0,4.5-0.9,6-2.8c0.8-0.9,1.6-1.8,2.5-2.8c5.2-5.8,11.8-13.1,11.7-24c-0.1-11.6-10.7-22.1-20.8-29.9c-0.1-0.8-0.3-1.5-0.5-2.3
		c-1.7-4.9-2.8-9.7-3.5-14.3c4.3,2.4,8.5,3.9,12.6,4.5c1.2,0.2,2.4,0.3,3.6,0.3c5.5,0,10.7-1.8,15.1-5.4c3.1-2.5,3.6-7,1.1-10.2
		c-0.2-0.3-0.5-0.6-0.8-0.8c0.2-0.5,0.9-1.4,2.6-2.1c0.3-0.1,0.7-0.2,1-0.4c0.1-0.1,0.2-0.1,0.3-0.2c2.9-1.5,5.6-4.7,7-9
		C109.4,21.9,107.6,15.3,103.1,13.8z"/>
</g>
</svg>
