<?xml version="1.0" encoding="utf-8"?>
<!-- Generator: Adobe Illustrator 18.0.0, SVG Export Plug-In . SVG Version: 6.00 Build 0)  -->
<!DOCTYPE svg PUBLIC "-//W3C//DTD SVG 1.1//EN" "http://www.w3.org/Graphics/SVG/1.1/DTD/svg11.dtd">
<svg version="1.1" id="Layer_1" xmlns="http://www.w3.org/2000/svg" xmlns:xlink="http://www.w3.org/1999/xlink" x="0px" y="0px"
	 viewBox="0 0 128 128" enable-background="new 0 0 128 128" xml:space="preserve">
<g>
	<path fill="#ECB200" d="M57.6,33.1c5.4,0,9.8-4.2,9.8-9.3c0-5.1-4.4-9.3-9.8-9.3c-5.4,0-9.8,4.2-9.8,9.3
		C47.8,29,52.1,33.1,57.6,33.1z"/>
	<path fill="#ECB200" d="M80.7,84.5c-0.9,0.6-1.1,1.7-0.5,2.6c0.4,0.5,0.9,0.8,1.5,0.8c0.4,0,0.7-0.1,1-0.3
		c0.2-0.2,5.7-3.9,11.2-11.1c5.1-6.7,11.1-17.7,11.1-32.4c0-11.6-3.8-22.8-10.9-32.3C88.6,4.2,82.9,0.4,82.8,0.3
		c-0.9-0.6-2-0.3-2.6,0.5c-0.6,0.9-0.3,2,0.5,2.6c0.2,0.1,16.9,11.5,20.1,33.4c-0.7,0.1-1.7,0.2-2.7,0.3c-0.1,0-0.2,0-0.3,0
		c0,0-0.4,0-1,0.1c-1.9,0.2-3.5,0.3-3.5,0.3l0,0c-5.2,0.3-14.2,0.8-23.7,0.4c-24.8-1-31.5-6.4-33.2-8.7c-0.9-1.2-1.7-3-0.2-7
		c1.2-3.2-0.3-6.8-3.5-8.1c-3.2-1.2-6.8,0.3-8.1,3.5c-3.5,9-0.9,15.3,1.9,19c3.9,5.2,10.9,8.8,21.1,11.1c0,0.6-0.1,1.4-0.2,2.2
		C47,55.8,46.1,67.6,46,78.1c-5.5,4.4-7.9,7.1-14,15.5c-1.3,1.8-2.7,4.9-1.4,13.2c0.8,5.1,2.4,11,4.5,16.7c1,2.7,3.6,4.4,6.4,4.4
		c0.8,0,1.6-0.1,2.4-0.4c3.5-1.3,5.3-5.3,4-8.8c-3.4-8.9-4.2-15.7-4.1-17.9c4.7-6.4,6.4-8.4,10.6-11.8c0,0,0.1,0,0.1,0
		c1,1.6,2.2,3.3,3.1,4.7c2.1,3.2,4.3,6.6,6.1,9.2c0.8,1.1,1.5,2.2,2.2,3.2c4.1,6,6.9,10,11.4,18.3c1.2,2.3,3.6,3.6,6,3.6
		c1.1,0,2.2-0.3,3.3-0.8c3.3-1.8,4.5-6,2.7-9.3c-4.9-8.9-7.9-13.4-12.1-19.5c-0.7-1-1.4-2.1-2.2-3.2c-1.7-2.5-3.9-5.8-6-9
		c-1.3-2-2.4-3.7-3.3-5c0.1-0.6,0.2-1.3,0.2-2c0-10,0.9-21.9,1.4-27.6c0-0.5,0.1-0.9,0.1-1.3c0.6,0,1.2,0.1,1.8,0.1
		c2.9,0.1,5.6,0.2,8.3,0.2c7.2,0,13.9-0.3,17.3-0.6v0c0,0,0,0,0.1,0c2.5-0.2,4-0.3,4.2-0.3c0.1,0,0.2,0,0.3,0
		c0.6-0.1,1.2-0.1,1.7-0.2c-0.9,8.9-4.3,17.2-10,24.7C86,80.8,80.8,84.4,80.7,84.5z"/>
</g>
</svg>
