<?xml version="1.0" encoding="utf-8"?>
<!-- Generator: Adobe Illustrator 18.0.0, SVG Export Plug-In . SVG Version: 6.00 Build 0)  -->
<!DOCTYPE svg PUBLIC "-//W3C//DTD SVG 1.1//EN" "http://www.w3.org/Graphics/SVG/1.1/DTD/svg11.dtd">
<svg version="1.1" id="Layer_1" xmlns="http://www.w3.org/2000/svg" xmlns:xlink="http://www.w3.org/1999/xlink" x="0px" y="0px"
	 viewBox="0 0 128 128" enable-background="new 0 0 128 128" xml:space="preserve">
<g>
	<path fill="#ECB200" d="M27.7,20.2c5.9,0,10.7-4.5,10.7-10.1C38.4,4.5,33.6,0,27.7,0C21.8,0,17,4.5,17,10.1
		C17,15.7,21.8,20.2,27.7,20.2z"/>
	<path fill="#ECB200" d="M118.1,18H49.2c-1.3,0-1.2,2-1.2,3.4v7.9c-3,0-7.1-0.5-12.1-2.4c-2.1-2-5.2-3.2-8.4-3c-0.1,0-0.3,0-0.4,0
		c-0.6,0-1.2,0.1-1.8,0.3c-4.8,1.1-8.3,5.4-8.4,10.4c0,0.3-0.1,0.9-0.1,1.4c-0.3,4.2-1.2,15.2-1.2,31.1c0,0,0,0,0,0
		c0,0.1,0,0.1,0,0.2c0,0.1,0,0.1,0,0.2c0,0.1,0,0.1,0,0.2c0,0.1,0,0.1,0,0.2c0,0.1,0,0.1,0,0.2c0,0,0,0.1,0,0.1
		c0,14.1,0,37.8-7.9,47.8c-2.5,3.2-2,7.9,1.3,10.5c1.4,1.1,3,1.6,4.6,1.6c2.2,0,4.4-1,5.9-2.8c6.2-7.9,9-19.5,10.2-31.1
		c2.9,5.9,6.6,12.3,10.2,18.5c2.2,3.8,4.5,7.8,6.6,11.6c1.4,2.5,3.9,3.9,6.6,3.9c1.2,0,2.4-0.3,3.6-0.9c3.6-2,4.9-6.5,3-10.1
		c-2.2-3.9-4.5-8-6.7-11.9c-4.1-7.1-8-13.9-10.8-19.8c-1.3-2.8-2.9-5.8-4.4-8.4c-0.2-6.8-0.2-12.8,0-18c1.8,0.3,3.6,0.4,5.2,0.4
		c5,0,9.4-1.2,13.1-3.7c6.2-4.2,9.7-11.8,9.7-20.8c0-0.5,0-1.3-0.1-1.8c0-0.2,0.1-0.9,0.1-0.9h2.9c2,0,3.6-1.1,4.7-2.2l6-5.8h39.1
		c1.3,0,3.9-0.7,3.9-2.1v-0.5C122,20,119.4,18,118.1,18z M48.1,44.2c-2.2,1.5-5.7,1.8-10.2,0.9c0.1-1.2,0.1-2.3,0.2-3.2
		c2.9,0.7,5.8,1,8.4,1c1.1,0,2.1-0.1,3.1-0.2C49.1,43.5,48.5,44,48.1,44.2z"/>
</g>
</svg>
