<?xml version="1.0" encoding="utf-8"?>
<!-- Generator: Adobe Illustrator 18.0.0, SVG Export Plug-In . SVG Version: 6.00 Build 0)  -->
<!DOCTYPE svg PUBLIC "-//W3C//DTD SVG 1.1//EN" "http://www.w3.org/Graphics/SVG/1.1/DTD/svg11.dtd">
<svg version="1.1" id="Layer_1" xmlns="http://www.w3.org/2000/svg" xmlns:xlink="http://www.w3.org/1999/xlink" x="0px" y="0px"
	 viewBox="0 0 128 128" enable-background="new 0 0 128 128" xml:space="preserve">
<g>
	
		<ellipse transform="matrix(0.1368 0.9906 -0.9906 0.1368 114.7144 -71.3939)" fill="#ECB200" cx="98.3" cy="30.1" rx="10.1" ry="9.6"/>
	<path fill="#ECB200" d="M102.4,56.7c-2.6,0-5.1,0.4-7.4,1.1c-2.6-1.4-5-3.3-6.2-5.9c-0.9-1.9-0.9-3.8-0.8-5.3
		c1.2-2.1,1.7-4.6,1.3-7.2c-1-5.4-6.1-9-11.5-8.3c-0.1,0-0.1,0-0.2,0c-9.6,0.9-19.6,3.9-29.6,8.8c-4.9,2.5-7,8.3-4.9,13.3
		c-0.2,2.9-0.5,5.8-1.1,9.1c-4.4-3.6-10.1-5.8-16.2-5.8C11.5,56.7,0,68.2,0,82.4S11.5,108,25.6,108c5,0,9.7-1.4,13.6-3.9
		c0.2,0,0.3,0.1,0.5,0.1c0.5,0.1,1.1,0.2,1.6,0.2c3.2,0,6.1-2.2,6.9-5.5l0.7-2.8c0.4-1.8,0.8-3.6,1.2-5.2l0.9-0.2
		c11.1-2.8,17.8-4.4,20.9-10c2.4-4.3,1.1-10-5-20.7c-0.9-1.5-1.8-3.1-2.7-4.6c3.8-1.4,7.5-2.4,11.1-3c0.3,1.6,0.8,3.2,1.5,4.8
		c1.4,3.1,3.5,5.9,6.3,8.3c-4,4.5-6.4,10.5-6.4,17c0,14.1,11.5,25.6,25.6,25.6c14.1,0,25.6-11.5,25.6-25.6S116.5,56.7,102.4,56.7z
		 M3.9,82.4c0-12,9.8-21.8,21.8-21.8c6,0,11.4,2.4,15.4,6.4c-1.2,6.2-3.1,14.1-5.9,25.9l-0.7,2.8c-0.5,2.2,0,4.3,1.3,6
		c-3,1.6-6.5,2.5-10.1,2.5C13.6,104.1,3.9,94.4,3.9,82.4z M53.7,75.4c0.6-2.7,1.1-5.1,1.5-7.4c1.5,2.8,2.4,4.7,2.9,6
		C57,74.4,55.4,74.9,53.7,75.4z M102.4,104.1c-12,0-21.8-9.8-21.8-21.8c0-5.6,2.2-10.8,5.7-14.6c2.9,1.9,6.3,3.4,10.3,4.7
		c0.6,0.2,1.3,0.3,1.9,0.3c2.7,0,5.3-1.8,6.1-4.5c0.9-2.9-0.4-6.1-3-7.5c0.2,0,0.5,0,0.7,0c12,0,21.8,9.8,21.8,21.8
		C124.1,94.4,114.4,104.1,102.4,104.1z"/>
	<circle fill="#ECB200" cx="17.6" cy="25.9" r="5.1"/>
	<circle fill="#ECB200" cx="8.1" cy="35.2" r="5.1"/>
	<circle fill="#ECB200" cx="26.9" cy="35.2" r="5.1"/>
</g>
</svg>
