<?xml version="1.0" encoding="utf-8"?>
<!-- Generator: Adobe Illustrator 18.0.0, SVG Export Plug-In . SVG Version: 6.00 Build 0)  -->
<!DOCTYPE svg PUBLIC "-//W3C//DTD SVG 1.1//EN" "http://www.w3.org/Graphics/SVG/1.1/DTD/svg11.dtd">
<svg version="1.1" id="Layer_1" xmlns="http://www.w3.org/2000/svg" xmlns:xlink="http://www.w3.org/1999/xlink" x="0px" y="0px"
	 viewBox="0 0 128 128" enable-background="new 0 0 128 128" xml:space="preserve">
<g>
	<path fill="#ECB200" d="M119,5.3V0c-11,10.2-22.6,22.2-32.2,35.6c-2.2,3.1-4.2,6.1-6.1,9.1c-7.3-1.1-15.1-1.7-23.4-1.8
		c-1.7-0.4-3.5-0.3-5.1,0.2c-0.4,0.1-0.9,0.3-1.3,0.5c-2.3,1-4.2,2.7-5.3,5.1c-6.1,12.5-6.7,21.3-7.8,35.9l-0.2,2
		c-0.2,2.1,0.3,4.5,1.3,5.5H22.9c-1.5,0-2.7,1.5-2.7,3c0,8.9,7,13.8,20.8,17.6c-2.1,0.9-4.4,1.8-8.4,1.8c-4.9,0-7.4-1.2-9.9-2.4
		c-2.7-1.3-5.8-2.8-11.7-2.8c-1.1,0-2,0.9-2,2c0,1.1,0.9,2,2,2c4.9,0,7.4,1.2,9.9,2.5c2.7,1.3,5.8,2.9,11.7,2.9
		c5.9,0,9-1.5,11.7-2.9c0.9-0.5,1.8-0.9,2.8-1.3c2.2,0.5,4.5,1,6.9,1.5c11.7,2.3,24.7,3.4,36.2,3.9c-1.8,0.5-3.2,1.2-4.5,1.9
		c-2.6,1.3-5,2.5-9.9,2.5c-4.9,0-7.4-1.2-9.9-2.5c-2.7-1.3-5.8-2.9-11.7-2.9c-5.9,0-9,1.5-11.7,2.9c-2.6,1.3-5,2.5-9.9,2.5
		c-4.9,0-7.4-1.2-9.9-2.5c-2.7-1.3-5.8-2.9-11.7-2.9c-1.1,0-2,0.9-2,2c0,1.1,0.9,2,2,2c4.9,0,7.4,1.2,9.9,2.5
		c2.7,1.3,5.8,2.9,11.7,2.9c5.9,0,9-1.5,11.7-2.9c2.6-1.3,5-2.5,9.9-2.5c4.9,0,7.4,1.2,9.9,2.5c2.7,1.3,5.8,2.9,11.7,2.9
		c5.9,0,9-1.5,11.7-2.9c2.6-1.3,5-2.5,9.9-2.5c5,0,7.3,1.2,9.8,2.5c2.7,1.3,5.6,2.9,11.6,2.9v-4c-5,0-7.2-1.7-9.8-2.9
		c-1.1-0.5-2.1-1.1-3.5-2.1c0.1,0,0.2,0,0.3,0c7.8,0,12.7,0.3,12.9,0.3c0,0,0,0.5,0,0.5v-1.3v-4v-8.2V92.6c0,0,0-0.6,0-0.6H91.3
		c0,0,0-0.5-0.1-0.9c-0.6-3.6-1.2-6.1-1.8-8.1H119v-4H88.1c-0.6-2-1.3-3.1-2.1-4.7c-0.3-0.6-0.6-1.2-0.9-1.9
		c-1.3-2.8-3.6-4.7-6.5-5.4c-2.1-0.5-4.1-0.3-6.2,0.4c1.5-2.9,3.2-6.2,5.2-9.7c11.2,1.6,17.1,3.9,17,3.9c0.8,0.3,1.7,0.4,2.5,0.4
		c3.8-0.2,6.8-3.2,6.7-6.9c0-0.8-0.2-1.5-0.5-2.2c-1.3-2.9-3.5-3.6-6.9-4.7c-2.7-0.8-5.7-1.6-8.9-2.2c-0.8-0.2-1.7-0.3-2.5-0.5
		c1.6-2.5,3.2-5,5.1-7.6C98.8,25.7,109,14.8,119,5.3z M73.9,82.7c0.9,2.1,1.6,4.3,2.6,9.3H61.8c1.8-1,3.6-2.7,5.6-4.3
		C69.2,86.2,71.8,84.3,73.9,82.7z M66.4,70.4c-2.1,1.4-4.3,3.1-6.6,5c0.7-6.9,1.8-11.4,4.8-17.6c0.2-0.5,0.4-1,0.6-1.5
		c2.9,0.2,5.6,0.4,8,0.7C70.4,62.2,68.1,66.8,66.4,70.4z"/>
	<path fill="#ECB200" d="M65.1,41.2c5.8-0.2,10.3-4.9,10.1-10.3c-0.2-5.5-5.1-9.7-10.9-9.5c-5.8,0.2-10.3,4.9-10.1,10.3
		C54.4,37.2,59.3,41.4,65.1,41.2z"/>
</g>
</svg>
