<?xml version="1.0" encoding="utf-8"?>
<!-- Generator: Adobe Illustrator 18.0.0, SVG Export Plug-In . SVG Version: 6.00 Build 0)  -->
<!DOCTYPE svg PUBLIC "-//W3C//DTD SVG 1.1//EN" "http://www.w3.org/Graphics/SVG/1.1/DTD/svg11.dtd">
<svg version="1.1" id="Layer_1" xmlns="http://www.w3.org/2000/svg" xmlns:xlink="http://www.w3.org/1999/xlink" x="0px" y="0px"
	 viewBox="0 0 128 128" enable-background="new 0 0 128 128" xml:space="preserve">
<g>
	<path fill="#ECB200" d="M110.3,107.4c-8.9-2.6-15.8-4.7-17.6-7.7c-2.4-3.7-3.1-11.6-3.3-18.1c2.1-1.9,3.5-4.6,3.8-7.7
		c1.1-14.5-1.7-29.4-3.1-36.6c-0.1-0.8-0.3-1.7-0.4-2.2c-0.2-5-3.7-9.5-8.8-10.7c-2-0.5-4-0.4-5.9,0.1c-0.3,0.1-0.6,0.2-0.8,0.3
		c-1.2,0.5-2.4,1.1-3.4,2L28.4,53.1c-3.4,2.1-4.4,6.6-2.3,9.9c1.4,2.2,3.7,3.4,6.1,3.4c1.3,0,2.6-0.4,3.8-1.1l32-19.9
		c1.1,6.2,2.5,15.4,2.2,24.1c-13.6,6.6-25.2,14.3-25.2,25.2c0,10.3,1.9,18.3,6.6,28.7c1.3,2.9,4.2,4.6,7.2,4.6
		c1.1,0,2.2-0.2,3.3-0.7c4-1.8,5.7-6.5,3.9-10.5c-3.7-8.1-5.1-14.1-5.2-21.9c0.2-0.5,1.5-2.7,7.5-6.5c1.7-1,3.5-2,5.2-2.9
		c0.5,8.6,2,16.9,5.6,22.7c4.8,7.7,13.7,10.7,26.6,14.5c0.7,0.2,1.5,0.3,2.2,0.3c3.4,0,6.6-2.3,7.6-5.7
		C117,113.1,114.6,108.7,110.3,107.4z"/>
	<path fill="#ECB200" d="M71.9,21.5c6.3,0,11.4-4.8,11.4-10.7S78.2,0,71.9,0c-6.3,0-11.3,4.8-11.3,10.7S65.6,21.5,71.9,21.5z"/>
	<path fill="#ECB200" d="M39,36.1c0-7.1-6.1-12.9-13.5-12.9c-7.5,0-13.5,5.8-13.5,12.9S18,49,25.4,49C32.9,49,39,43.3,39,36.1z
		 M16.3,36.1c0-4.7,4.1-8.6,9.2-8.6c5.1,0,9.2,3.9,9.2,8.6s-4.1,8.6-9.2,8.6C20.4,44.7,16.3,40.9,16.3,36.1z"/>
</g>
</svg>
