<?xml version="1.0" encoding="utf-8"?>
<!-- Generator: Adobe Illustrator 18.0.0, SVG Export Plug-In . SVG Version: 6.00 Build 0)  -->
<!DOCTYPE svg PUBLIC "-//W3C//DTD SVG 1.1//EN" "http://www.w3.org/Graphics/SVG/1.1/DTD/svg11.dtd">
<svg version="1.1" id="Layer_1" xmlns="http://www.w3.org/2000/svg" xmlns:xlink="http://www.w3.org/1999/xlink" x="0px" y="0px"
	 viewBox="0 0 128 128" enable-background="new 0 0 128 128" xml:space="preserve">
<g>
	<path fill="#ECB200" d="M87,94.5c-1.2,0-1.7-0.5-2.7-1.5c-1-1.1-2.4-2.6-5.1-2.6c-2.7,0-4.1,1.6-5.1,2.8c-1,1.1-1.5,1.7-2.6,1.7
		c-2,0-3,0.1-4,0.1c-1,0.1-1.9,0.1-3.8,0.1c-1.4,0-2-0.5-2.8-1.2c-1.1-0.8-2.4-1.9-4.9-1.9c-1.6,0-2.3-0.3-3.3-0.6
		c-1-0.4-2.2-0.9-4.5-0.9c-1.9,0-2.8-0.1-3.8-0.1c-1-0.1-2-0.1-4-0.1c-2,0-3,0-3.9,0.1c-1,0-1.9,0.1-3.8,0.1c-1.9,0-2.9,0-3.9,0
		c-1,0-2,0-3.9,0c-2.3,0-3.6,0.6-4.6,1.1c-0.9,0.4-1.6,0.8-3.2,0.8c-2.2,0-3.4,0.4-4.4,0.8c-0.9,0.3-1.7,0.6-3.3,0.6
		c-0.9,0-1.7,0.7-1.7,1.7c0,0.9,0.7,1.7,1.7,1.7c2.2,0,3.4-0.4,4.4-0.8c0.9-0.3,1.7-0.6,3.3-0.6c2.3,0,3.6-0.6,4.6-1.1
		c0.9-0.4,1.6-0.8,3.2-0.8c1.9,0,2.9,0,3.9,0c1,0,2,0,3.9,0c2,0,3,0,3.9-0.1c1,0,1.9-0.1,3.8-0.1c1.9,0,2.8,0.1,3.8,0.1
		c1,0.1,2,0.1,4,0.1c1.6,0,2.3,0.3,3.3,0.7c1,0.4,2.2,0.9,4.5,0.9c1.4,0,2,0.5,2.8,1.2c1.1,0.8,2.4,1.9,4.9,1.9c2,0,3-0.1,4-0.1
		c1-0.1,1.9-0.1,3.8-0.1c2.7,0,4.1-1.6,5.1-2.8c1-1.1,1.5-1.7,2.6-1.7c1.2,0,1.7,0.5,2.7,1.5c1,1.1,2.4,2.6,5.1,2.6
		c0.9,0,1.7-0.7,1.7-1.7S87.9,94.5,87,94.5z"/>
	
		<ellipse transform="matrix(-0.2174 0.9761 -0.9761 -0.2174 142.7611 -39.0051)" fill="#ECB200" cx="87" cy="37.7" rx="8.3" ry="8.7"/>
	<path fill="#ECB200" d="M126.3,59.3c-1.5-2.2-3.8-3.8-6.5-4.4c-0.8-0.2-1.6-0.3-2.4-0.3c-4.8,0-8.9,3.2-9.9,7.7
		c-0.6,2.6-0.1,5.3,1.5,7.6c1.5,2.2,3.8,3.8,6.5,4.4c0.8,0.2,1.6,0.3,2.4,0.3c4.8,0,8.9-3.2,9.9-7.7
		C128.3,64.2,127.8,61.5,126.3,59.3z M124.5,66.1c-0.7,3-3.4,5.1-6.7,5.1c-0.5,0-1.1-0.1-1.6-0.2c-1.9-0.4-3.5-1.5-4.5-3
		c-1-1.5-1.4-3.3-1-5c0.7-3,3.4-5.1,6.7-5.1c0.5,0,1.1,0.1,1.6,0.2c1.9,0.4,3.4,1.5,4.5,3C124.6,62.6,124.9,64.4,124.5,66.1z"/>
	<path fill="#ECB200" d="M85.2,50c-0.6-0.8-1.3-1.5-2.2-2c-0.2-0.1-0.4-0.5-0.6-0.6c-1.3-0.7-2.7-1.3-4.3-1.3c-0.1,0-0.1,0-0.2,0
		c-3.7,0-6.8,2.6-8.1,5.9c-1,1.6-7.7,11.1-20.5,9.6c-3.8-0.4-7.3,1.6-8.9,4.8c-1.6,0.4-3.7,0.7-6.4,0.4c-4.9-0.5-12.7-3.1-22.1-12.4
		c-2.8-2.8-7.3-2.7-10,0c-2.8,2.8-2.7,7.3,0,10C14.3,76.5,25.4,80,32.6,80.8c1.3,0.1,2.6,0.2,3.9,0.2c2.8,0,5.5-0.4,8.1-1.1
		c0.9-0.2,1.7-0.5,2.5-0.8c0.1,0,0.2,0,0.3,0c1.6,0.2,3.2,0.3,4.8,0.3c4.7,0,9.3-0.8,13.7-2.5c4.5-1.7,8.7-4.3,12.4-7.7
		c2.3-2.1,4-4.1,5.1-5.5l21.3,20.9c1.1,1.1,2.5,1.6,3.9,1.6c1.4,0,2.9-0.6,4-1.7c2.1-2.2,2.1-5.7-0.1-7.8L85.2,50z"/>
</g>
</svg>
